<?xml version="1.0" encoding="UTF-8"?><svg id="Layer_1" xmlns="http://www.w3.org/2000/svg" viewBox="0 0 16 16"><defs><style>.cls-1{fill:#fff;}</style></defs><path class="cls-1" d="M16,4.58c-.06-1.35-1.17-2.43-2.53-2.43h-6.74c-1.35.06-2.43,1.17-2.43,2.54v2.93s-1.61,0-1.61,0h-.06c-.38-.03-.67-.33-.67-.68v-2.18c.46-.22.78-.69.78-1.23,0-.75-.61-1.37-1.37-1.37s-1.37.61-1.37,1.37c0,.54.32,1.01.78,1.23v2.19s0,.08,0,.08c.04.99.88,1.77,1.9,1.77h1.61s0,2.53,0,2.53v.11c.06,1.35,1.17,2.43,2.54,2.43h6.74c1.35-.06,2.43-1.17,2.43-2.54v-6.74ZM14.83,11.32v.08c-.05.72-.64,1.28-1.37,1.28h-6.72c-.72-.05-1.28-.64-1.28-1.37v-6.72c.05-.72.64-1.28,1.37-1.28h6.63c.75,0,1.37.61,1.37,1.37v6.63Z"/><path class="cls-1" d="M7.83,11.26v-6.51h2.13c.68,0,1.26.14,1.76.41.5.27.88.65,1.16,1.14.27.49.41,1.05.41,1.7s-.14,1.21-.41,1.7c-.27.49-.66.87-1.16,1.15-.5.27-1.08.41-1.76.41h-2.13ZM8.86,10.34h1.12c.46,0,.86-.1,1.2-.29.34-.19.6-.46.79-.81.19-.35.28-.76.28-1.24s-.09-.89-.28-1.24c-.19-.35-.45-.62-.79-.81-.34-.19-.74-.29-1.2-.29h-1.12v4.67Z"/></svg>