<svg width="30" height="23" viewBox="0 -5 30 30" fill="none" xmlns="http://www.w3.org/2000/svg">
<path d="M0 4C0 1.79086 1.79086 0 4 0H26C28.2091 0 30 1.79086 30 4V18.5C30 20.7091 28.2091 22.5 26 22.5H4C1.79086 22.5 0 20.7091 0 18.5V4Z" fill="#0D5AA7"/>
<path d="M2.9517 9.09302C2.56006 9.09302 2.26397 9.22514 2.06343 9.48938C1.86525 9.75362 1.76616 10.1453 1.76616 10.6643C1.76616 11.7118 2.15898 12.2356 2.94462 12.2356C3.73262 12.2356 4.12662 11.7118 4.12662 10.6643C4.12662 9.61678 3.73498 9.09302 2.9517 9.09302ZM1.30256 8.88423C1.68948 8.47607 2.24037 8.27199 2.95524 8.27199C3.6701 8.27199 4.21628 8.47843 4.59376 8.8913C4.97361 9.30418 5.16353 9.89636 5.16353 10.6678C5.16353 11.4393 4.97243 12.0315 4.59022 12.4444C4.20802 12.8573 3.65948 13.0637 2.94462 13.0637C2.23212 13.0637 1.68476 12.8573 1.30256 12.4444C0.920353 12.0315 0.729251 11.437 0.729251 10.6608C0.729251 9.88456 0.920353 9.29238 1.30256 8.88423Z" fill="white"/>
<path d="M7.11389 9.15318V10.5334H7.43593C8.04226 10.5334 8.34543 10.2998 8.34543 9.83266C8.34543 9.59909 8.28173 9.42804 8.15433 9.31951C8.02929 9.20863 7.83111 9.15318 7.55979 9.15318H7.11389ZM7.61287 8.34277C8.1791 8.34277 8.60849 8.46545 8.90104 8.71082C9.19595 8.95383 9.34341 9.32069 9.34341 9.81143C9.34341 10.3022 9.18652 10.6808 8.87273 10.9474C8.56131 11.2117 8.1154 11.3438 7.53502 11.3438H7.11389V13H6.12652V8.34277H7.61287Z" fill="white"/>
<path d="M12.0155 9.1638V13H11.0281V9.1638H9.76473V8.34277H13.2789V9.1638H12.0155Z" fill="white"/>
<path d="M14.982 13H13.9947V8.34277H14.982V13Z" fill="white"/>
<path d="M18.1685 9.09302C17.7769 9.09302 17.4808 9.22514 17.2802 9.48938C17.082 9.75362 16.983 10.1453 16.983 10.6643C16.983 11.7118 17.3758 12.2356 18.1614 12.2356C18.9494 12.2356 19.3434 11.7118 19.3434 10.6643C19.3434 9.61678 18.9518 9.09302 18.1685 9.09302ZM16.5194 8.88423C16.9063 8.47607 17.4572 8.27199 18.172 8.27199C18.8869 8.27199 19.4331 8.47843 19.8106 8.8913C20.1904 9.30418 20.3803 9.89636 20.3803 10.6678C20.3803 11.4393 20.1892 12.0315 19.807 12.4444C19.4248 12.8573 18.8763 13.0637 18.1614 13.0637C17.4489 13.0637 16.9016 12.8573 16.5194 12.4444C16.1371 12.0315 15.946 11.437 15.946 10.6608C15.946 9.88456 16.1371 9.29238 16.5194 8.88423Z" fill="white"/>
<path d="M25.4733 8.34277V13H24.2169L22.1927 9.47877H22.1644C22.2045 10.1158 22.2245 10.5593 22.2245 10.8094V13H21.3433V8.34277H22.5855L24.6098 11.8322H24.631C24.6003 11.2494 24.585 10.8212 24.585 10.5475V8.34277H25.4733Z" fill="white"/>
<path d="M29.3942 11.7083C29.3942 12.1259 29.2432 12.4562 28.9412 12.6992C28.6392 12.9422 28.2287 13.0637 27.7097 13.0637C27.1906 13.0637 26.7412 12.9705 26.3614 12.7841V11.8675C26.6751 12.0044 26.9406 12.1023 27.1576 12.1613C27.3747 12.2203 27.5835 12.2497 27.784 12.2497C27.9845 12.2497 28.1414 12.2085 28.2547 12.1259C28.3703 12.041 28.4281 11.9171 28.4281 11.7543C28.4281 11.6599 28.4021 11.5785 28.3502 11.5101C28.2983 11.4393 28.2264 11.3733 28.1344 11.3119C28.0447 11.2482 27.8477 11.1456 27.5434 11.004C27.2414 10.8601 27.0208 10.7268 26.8816 10.6041C26.5702 10.3352 26.4144 9.99781 26.4144 9.59201C26.4144 9.18622 26.5536 8.86535 26.832 8.62942C27.1104 8.39349 27.4962 8.27553 27.9893 8.27553C28.4069 8.27553 28.8681 8.38524 29.373 8.60465L29.0545 9.3726C28.8068 9.27115 28.6003 9.20037 28.4352 9.16026C28.27 9.12016 28.1025 9.1001 27.9326 9.1001C27.7651 9.1001 27.6307 9.14257 27.5292 9.2275C27.4301 9.31244 27.3806 9.42686 27.3806 9.57078C27.3806 9.73593 27.4643 9.87513 27.6318 9.98837C27.7144 10.045 27.9232 10.1523 28.2582 10.3104C28.69 10.518 28.9872 10.7268 29.15 10.9368C29.3128 11.1468 29.3942 11.4039 29.3942 11.7083Z" fill="white"/>
</svg>
