<svg width="30" height="23" viewBox="0 -5 30 30" fill="none" xmlns="http://www.w3.org/2000/svg">
<path d="M0 4C0 1.79086 1.79086 0 4 0H26C28.2091 0 30 1.79086 30 4V18.5C30 20.7091 28.2091 22.5 26 22.5H4C1.79086 22.5 0 20.7091 0 18.5V4Z" fill="#3D7EFF"/>
<path d="M11.2797 11.2058V10.3847H13.127V12.7983C12.5938 12.9752 12.0417 13.0637 11.4708 13.0637C10.7701 13.0637 10.2333 12.8573 9.86055 12.4444C9.49014 12.0315 9.30493 11.4452 9.30493 10.6855C9.30493 9.92349 9.51963 9.33131 9.94902 8.909C10.3831 8.48669 10.98 8.27553 11.7397 8.27553C12.2187 8.27553 12.6787 8.37108 13.1199 8.56218L12.7943 9.3549C12.4546 9.18504 12.1007 9.1001 11.7326 9.1001C11.308 9.1001 10.9659 9.24402 10.7064 9.53185C10.4492 9.81732 10.3206 10.2078 10.3206 10.7032C10.3206 11.1963 10.4244 11.5762 10.632 11.8428C10.8397 12.1094 11.1405 12.2427 11.5345 12.2427C11.7397 12.2427 11.9485 12.2214 12.1608 12.179V11.2058H11.2797Z" fill="white"/>
<path d="M16.9163 12.186V13H14.2374V8.34277H16.9163V9.15318H15.2247V10.1759H16.7995V10.9828H15.2247V12.186H16.9163Z" fill="white"/>
<path d="M19.682 9.1638V13H18.6946V9.1638H17.4312V8.34277H20.9454V9.1638H19.682Z" fill="white"/>
</svg>
