<svg width="30" height="23" viewBox="0 -5 30 30" fill="none" xmlns="http://www.w3.org/2000/svg">
<path d="M0 4C0 1.79086 1.79086 0 4 0H26C28.2091 0 30 1.79086 30 4V18.5C30 20.7091 28.2091 22.5 26 22.5H4C1.79086 22.5 0 20.7091 0 18.5V4Z" fill="#9012FE"/>
<path d="M10.4166 8.34277V13H9.43277V10.9899H7.58898V13H6.60162V8.34277H7.58898V10.1689H9.43277V8.34277H10.4166Z" fill="white"/>
<path d="M14.2708 12.186V13H11.5919V8.34277H14.2708V9.15318H12.5792V10.1759H14.154V10.9828H12.5792V12.186H14.2708Z" fill="white"/>
<path d="M19.1563 13H18.0911L17.7549 11.8923H16.0562L15.72 13H14.6548L16.2968 8.32508H17.5036L19.1563 13ZM16.3039 11.0642H17.5178L16.9905 9.36198C16.9527 9.23458 16.9244 9.12959 16.9055 9.04702C16.8418 9.30182 16.6413 9.97422 16.3039 11.0642Z" fill="white"/>
<path d="M21.1556 12.186C22.1064 12.186 22.5818 11.6753 22.5818 10.6537C22.5818 9.65335 22.1406 9.15318 21.2583 9.15318H20.7345V12.186H21.1556ZM21.2087 8.34277C21.966 8.34277 22.5547 8.54331 22.9746 8.94439C23.3969 9.34311 23.6081 9.91523 23.6081 10.6608C23.6081 11.4039 23.3899 11.9796 22.9534 12.3878C22.5169 12.7959 21.887 13 21.0636 13H19.7471V8.34277H21.2087Z" fill="white"/>
</svg>
