<svg width="30" height="23" viewBox="0 -5 30 30" fill="none" xmlns="http://www.w3.org/2000/svg">
<path d="M0 4C0 1.79086 1.79086 0 4 0H26C28.2091 0 30 1.79086 30 4V18.5C30 20.7091 28.2091 22.5 26 22.5H4C1.79086 22.5 0 20.7091 0 18.5V4Z" fill="#FCA130"/>
<path d="M10.1764 9.15318V10.5334H10.4984C11.1048 10.5334 11.4079 10.2998 11.4079 9.83266C11.4079 9.59909 11.3442 9.42804 11.2168 9.31951C11.0918 9.20863 10.8936 9.15318 10.6223 9.15318H10.1764ZM10.6754 8.34277C11.2416 8.34277 11.671 8.46545 11.9635 8.71082C12.2585 8.95383 12.4059 9.32069 12.4059 9.81143C12.4059 10.3022 12.249 10.6808 11.9352 10.9474C11.6238 11.2117 11.1779 11.3438 10.5975 11.3438H10.1764V13H9.18902V8.34277H10.6754Z" fill="white"/>
<path d="M16.0866 8.34277H17.0739V11.3579C17.0787 11.8746 16.9053 12.2899 16.5537 12.6036C16.2022 12.9174 15.7315 13.0708 15.1417 13.0637C14.5401 13.0637 14.0741 12.9103 13.7438 12.6036C13.4159 12.2946 13.2519 11.8746 13.2519 11.3438V8.34277H14.2357V11.1951C14.2357 11.5585 14.3077 11.8227 14.4516 11.9879C14.5979 12.153 14.8338 12.2356 15.1594 12.2356C15.4873 12.2356 15.7233 12.1518 15.8672 11.9843C16.0134 11.8168 16.0866 11.5514 16.0866 11.1881V8.34277Z" fill="white"/>
<path d="M20.0067 9.1638V13H19.0193V9.1638H17.7559V8.34277H21.2701V9.1638H20.0067Z" fill="white"/>
</svg>
