<?xml version="1.0" encoding="UTF-8"?>
<svg xmlns="http://www.w3.org/2000/svg" viewBox="0 0 1441.07 1381.55">
  <g fill="#000" id="Layer_2" data-name="Layer 2">
    <g>
      <path d="M0,1369.98v-349.85c0-3.52,2.85-6.37,6.37-6.37H96.92c2.22,0,4.28,1.15,5.44,3.04l137.23,223.98c2.6,4.25-.45,9.7-5.44,9.7h-30.24c-4.94,0-8.01-5.39-5.48-9.63l133.31-223.98c1.15-1.93,3.23-3.11,5.48-3.11h90.51c3.51,0,6.36,2.84,6.37,6.36l1,349.85c.01,3.53-2.85,6.39-6.37,6.39h-98.64c-3.51,0-6.36-2.83-6.37-6.34l-.97-182.02c-.02-3.53,2.84-6.41,6.37-6.41h0c4.94,0,8,5.38,5.48,9.63l-88.77,149.39c-1.15,1.93-3.23,3.12-5.48,3.12h-46.7c-2.21,0-4.26-1.14-5.42-3.02l-92.59-149.39c-2.63-4.25,.42-9.73,5.42-9.73h3.93c3.52,0,6.37,2.85,6.37,6.37v182.02c0,3.52-2.85,6.37-6.37,6.37H6.37c-3.52,0-6.37-2.85-6.37-6.37Z"/>
      <path d="M494.17,1356.82v-323.54c0-10.79,8.74-19.53,19.53-19.53h83.18c10.79,0,19.53,8.74,19.53,19.53v323.54c0,10.79-8.74,19.53-19.53,19.53h-83.18c-10.79,0-19.53-8.74-19.53-19.53Z"/>
    </g>
  </g>
  <g fill="#000" id="Layer_1" data-name="Layer 1">
    <path d="M1303,646.94l-201.64,.48-100.54,180.9L749.98,216.81l-225.68,502.34-331.67-.71c1.34,27.67,4.69,54.8,9.83,81.28l374.34,.8,169.77-377.86,243.2,592.85,159.46-286.92,154.26-.37c.8-12.39,1.36-24.86,1.36-37.44-.03-14.77-.74-29.35-1.85-43.83Z"/>
    <path d="M748.39,0C365.84,0,55.71,309.28,55.71,690.78c0,144.66,44.6,278.93,120.83,389.89,13.3-50.87,40.44-96.26,77.21-132.06-39.49-77.23-61.79-164.9-61.79-257.83,0-310.62,249.14-562.4,556.43-562.4s556.43,251.78,556.43,562.4-249.11,562.4-556.43,562.4c-6.15,0-12.27-.11-18.37-.31-18.06,47.49-48.54,88.99-87.55,120.66,34.53,5.28,69.91,8.03,105.92,8.03,382.55,0,692.68-309.28,692.68-690.78S1130.93,0,748.39,0Z"/>
  </g>
</svg>
