<svg width="30" height="23" viewBox="0 -5 30 30" fill="none" xmlns="http://www.w3.org/2000/svg">
<path d="M0 4C0 1.79086 1.79086 0 4 0H26C28.2091 0 30 1.79086 30 4V18.5C30 20.7091 28.2091 22.5 26 22.5H4C1.79086 22.5 0 20.7091 0 18.5V4Z" fill="#F93E3E"/>
<path d="M5.37828 12.186C6.32907 12.186 6.80447 11.6753 6.80447 10.6537C6.80447 9.65335 6.36328 9.15318 5.48091 9.15318H4.95715V12.186H5.37828ZM5.43136 8.34277C6.18869 8.34277 6.77734 8.54331 7.19729 8.94439C7.6196 9.34311 7.83076 9.91523 7.83076 10.6608C7.83076 11.4039 7.61252 11.9796 7.17606 12.3878C6.73959 12.7959 6.10966 13 5.28627 13H3.96979V8.34277H5.43136Z" fill="white"/>
<path d="M11.4749 12.186V13H8.79596V8.34277H11.4749V9.15318H9.78332V10.1759H11.3581V10.9828H9.78332V12.186H11.4749Z" fill="white"/>
<path d="M15.32 13H12.4463V8.34277H13.4337V12.186H15.32V13Z" fill="white"/>
<path d="M18.8099 12.186V13H16.1309V8.34277H18.8099V9.15318H17.1183V10.1759H18.6931V10.9828H17.1183V12.186H18.8099Z" fill="white"/>
<path d="M21.5755 9.1638V13H20.5882V9.1638H19.3248V8.34277H22.8389V9.1638H21.5755Z" fill="white"/>
<path d="M26.2337 12.186V13H23.5547V8.34277H26.2337V9.15318H24.5421V10.1759H26.1169V10.9828H24.5421V12.186H26.2337Z" fill="white"/>
</svg>
