<svg width="16" height="16" viewBox="0 -2 18 18" fill="none" xmlns="http://www.w3.org/2000/svg">
<path d="M0.899902 9.90005C0.899902 9.67914 1.07899 9.50005 1.2999 9.50005H8.3999C8.62082 9.50005 8.7999 9.67914 8.7999 9.90005V12.1C8.7999 12.321 8.62082 12.5 8.3999 12.5H1.2999C1.07899 12.5 0.899902 12.321 0.899902 12.1V9.90005ZM1.6999 10.3V11.7H7.9999V10.3H1.6999Z" fill="black"/>
<path d="M1.2999 0.300049C1.52082 0.300049 1.6999 0.479135 1.6999 0.700049V13.1C1.6999 13.321 1.52082 13.5 1.2999 13.5C1.07899 13.5 0.899902 13.321 0.899902 13.1V0.700049C0.899902 0.479135 1.07899 0.300049 1.2999 0.300049Z" fill="black"/>
<path d="M5.5999 7.60005C5.5999 7.37913 5.77899 7.20005 5.9999 7.20005H11.9999C12.2208 7.20005 12.3999 7.37913 12.3999 7.60005V9.90005C12.3999 10.121 12.2208 10.3 11.9999 10.3H5.9999C5.77899 10.3 5.5999 10.121 5.5999 9.90005V7.60005ZM6.3999 8.00005V9.50005H11.5999V8.00005H6.3999Z" fill="black"/>
<path d="M3.0999 5.30005C3.0999 5.07913 3.27899 4.90005 3.4999 4.90005H7.5999C7.82082 4.90005 7.9999 5.07913 7.9999 5.30005V7.60005C7.9999 7.82096 7.82082 8.00005 7.5999 8.00005H3.4999C3.27899 8.00005 3.0999 7.82096 3.0999 7.60005V5.30005ZM3.8999 5.70005V7.20005H7.1999V5.70005H3.8999Z" fill="black"/>
<path d="M7.1999 3.00005C7.1999 2.77913 7.37899 2.60005 7.5999 2.60005H13.4999C13.7208 2.60005 13.8999 2.77913 13.8999 3.00005V5.30005C13.8999 5.52096 13.7208 5.70005 13.4999 5.70005H7.5999C7.37899 5.70005 7.1999 5.52096 7.1999 5.30005V3.00005ZM7.9999 3.40005V4.90005H13.0999V3.40005H7.9999Z" fill="black"/>
</svg>
