<svg width="30" height="23" viewBox="0 -5 30 30" fill="none" xmlns="http://www.w3.org/2000/svg">
<path d="M0 4C0 1.79086 1.79086 0 4 0H26C28.2091 0 30 1.79086 30 4V18.5C30 20.7091 28.2091 22.5 26 22.5H4C1.79086 22.5 0 20.7091 0 18.5V4Z" fill="#49CC90"/>
<path d="M8.25207 9.15318V10.5334H8.57411C9.18045 10.5334 9.48362 10.2998 9.48362 9.83266C9.48362 9.59909 9.41992 9.42804 9.29251 9.31951C9.16747 9.20863 8.96929 9.15318 8.69797 9.15318H8.25207ZM8.75106 8.34277C9.31729 8.34277 9.74668 8.46545 10.0392 8.71082C10.3341 8.95383 10.4816 9.32069 10.4816 9.81143C10.4816 10.3022 10.3247 10.6808 10.0109 10.9474C9.69949 11.2117 9.25359 11.3438 8.6732 11.3438H8.25207V13H7.26471V8.34277H8.75106Z" fill="white"/>
<path d="M13.3731 9.09302C12.9814 9.09302 12.6854 9.22514 12.4848 9.48938C12.2866 9.75362 12.1875 10.1453 12.1875 10.6643C12.1875 11.7118 12.5804 12.2356 13.366 12.2356C14.154 12.2356 14.548 11.7118 14.548 10.6643C14.548 9.61678 14.1564 9.09302 13.3731 9.09302ZM11.7239 8.88423C12.1109 8.47607 12.6618 8.27199 13.3766 8.27199C14.0915 8.27199 14.6377 8.47843 15.0151 8.8913C15.395 9.30418 15.5849 9.89636 15.5849 10.6678C15.5849 11.4393 15.3938 12.0315 15.0116 12.4444C14.6294 12.8573 14.0809 13.0637 13.366 13.0637C12.6535 13.0637 12.1061 12.8573 11.7239 12.4444C11.3417 12.0315 11.1506 11.437 11.1506 10.6608C11.1506 9.88456 11.3417 9.29238 11.7239 8.88423Z" fill="white"/>
<path d="M19.2941 11.7083C19.2941 12.1259 19.1431 12.4562 18.8411 12.6992C18.5391 12.9422 18.1286 13.0637 17.6096 13.0637C17.0905 13.0637 16.6411 12.9705 16.2613 12.7841V11.8675C16.575 12.0044 16.8405 12.1023 17.0575 12.1613C17.2746 12.2203 17.4834 12.2497 17.6839 12.2497C17.8844 12.2497 18.0413 12.2085 18.1546 12.1259C18.2702 12.041 18.328 11.9171 18.328 11.7543C18.328 11.6599 18.302 11.5785 18.2501 11.5101C18.1982 11.4393 18.1263 11.3733 18.0343 11.3119C17.9446 11.2482 17.7476 11.1456 17.4433 11.004C17.1413 10.8601 16.9207 10.7268 16.7815 10.6041C16.4701 10.3352 16.3143 9.99781 16.3143 9.59201C16.3143 9.18622 16.4535 8.86535 16.7319 8.62942C17.0103 8.39349 17.3961 8.27553 17.8892 8.27553C18.3068 8.27553 18.768 8.38524 19.2729 8.60465L18.9544 9.3726C18.7067 9.27115 18.5002 9.20037 18.3351 9.16026C18.1699 9.12016 18.0024 9.1001 17.8325 9.1001C17.665 9.1001 17.5306 9.14257 17.4291 9.2275C17.33 9.31244 17.2805 9.42686 17.2805 9.57078C17.2805 9.73593 17.3642 9.87513 17.5317 9.98837C17.6143 10.045 17.8231 10.1523 18.1581 10.3104C18.5899 10.518 18.8871 10.7268 19.0499 10.9368C19.2127 11.1468 19.2941 11.4039 19.2941 11.7083Z" fill="white"/>
<path d="M21.931 9.1638V13H20.9437V9.1638H19.6803V8.34277H23.1944V9.1638H21.931Z" fill="white"/>
</svg>
