<svg width="159" height="28" viewBox="0 0 159 28" fill="none" xmlns="http://www.w3.org/2000/svg">
<path d="M26.17 1.33311L20.2141 16.5616L14.2242 0.274902L7.87725 16.5251L2.46301 1.33311H0L7.78009 22.6676L14.1635 6.41739L20.1486 22.6871L28.6331 1.33311H26.17Z" fill="currentColor"/>
<path d="M38.1548 12.1731C37.1613 11.3606 31.956 8.65305 31.288 8.18354C30.62 7.71647 30.2848 7.03775 30.2848 6.14497C30.2848 5.25218 30.6249 4.52481 31.3026 3.96773C31.9803 3.40579 32.8061 3.1309 33.7777 3.1309C34.4044 3.1309 34.9412 3.25253 35.3882 3.4958C35.8327 3.73906 36.2602 4.13558 36.6634 4.68293L36.8771 5.01621C36.9354 5.06 37.0204 5.15974 37.12 5.3203L38.9126 4.16478C38.3248 3.12846 37.5913 2.34271 36.7071 1.80509C35.8278 1.26747 34.8781 0.999878 33.8676 0.999878C32.1454 0.999878 30.7366 1.48641 29.6411 2.45948C28.5481 3.43254 28.0016 4.68293 28.0016 6.20578C28.0016 7.64592 28.4946 8.75765 29.4881 9.5361C30.4816 10.317 35.4343 12.8907 36.2043 13.4186C36.9743 13.9441 37.3581 14.725 37.3581 15.7613C37.3581 16.9387 36.9719 17.9166 36.1897 18.6951C35.41 19.4784 34.4214 19.8676 33.2288 19.8676C32.1746 19.8676 31.305 19.5441 30.6176 18.8921C29.9278 18.2426 29.442 17.3133 29.1578 16.0946L26.9692 16.766C27.1587 17.5882 27.438 18.3205 27.8 18.9578C28.1692 19.6073 28.6282 20.1596 29.1748 20.6145C30.2581 21.5194 31.6305 21.9719 33.2944 21.9719C35.0554 21.9719 36.5541 21.3662 37.7904 20.1596C39.0244 18.953 39.6438 17.4763 39.6438 15.7297C39.6438 14.1679 39.1483 12.9808 38.1548 12.1707V12.1731Z" fill="currentColor"/>
<path d="M63.6691 10.7767C64.1792 10.6307 64.7233 10.5577 65.3014 10.5577C66.8463 10.5577 68.0948 11.0589 69.0469 12.0587C70.004 13.0537 70.4825 14.2311 70.4825 15.5885C70.4825 16.5421 70.2541 17.4349 69.7951 18.2693C69.3408 19.1037 68.4543 20.2349 67.1353 21.658L62.9574 26.173H70.7084V27.798H59.3066L65.7216 20.8601C67.0211 19.4613 67.8689 18.4274 68.2624 17.7536C68.6559 17.0821 68.8502 16.3694 68.8502 15.625C68.8502 14.6787 68.498 13.8637 67.7936 13.1826C67.0916 12.5014 66.2293 12.1609 65.2067 12.1609C64.6237 12.1609 64.0942 12.2679 63.6157 12.4795C63.657 12.0733 63.674 10.9324 63.6667 10.7791L63.6691 10.7767Z" fill="currentColor"/>
<path d="M51.4076 0C45.0606 0 39.9136 5.14022 39.9136 11.4798C39.9136 17.8193 45.0606 22.9595 51.4076 22.9595C57.7546 22.9595 62.9016 17.8193 62.9016 11.4798C62.9016 5.14022 57.7546 0 51.4076 0ZM51.4076 20.8285C46.3091 20.8285 42.175 16.6443 42.175 11.4822C42.175 6.32007 46.3091 2.13589 51.4076 2.13589C56.5061 2.13589 60.6402 6.32007 60.6402 11.4822C60.6402 16.6443 56.5061 20.8285 51.4076 20.8285Z" fill="currentColor"/>
<path d="M60.611 10.7524L57.2638 10.7597L55.5951 13.7665L51.4318 3.60278L47.6862 11.9517L42.1821 11.9395C42.204 12.3993 42.2599 12.8493 42.3449 13.2897L48.5558 13.3018L51.3735 7.02311L55.408 16.8754L58.0532 12.1074L60.6134 12.1001C60.628 11.8933 60.6352 11.6865 60.6352 11.4773C60.6352 11.2316 60.6231 10.9908 60.6037 10.75L60.611 10.7524Z" fill="currentColor"/>
<path d="M79.5474 12.4625V0.299194H83.5406C84.7479 0.299194 85.7947 0.547331 86.6862 1.04116C87.5776 1.53743 88.2675 2.23803 88.7557 3.14784C89.2439 4.05766 89.4893 5.13047 89.4893 6.37113C89.4893 7.61179 89.2439 8.67243 88.7557 9.58711C88.2675 10.5018 87.5752 11.2097 86.6862 11.7084C85.7947 12.2095 84.7454 12.4601 83.5406 12.4601H79.5474V12.4625ZM80.8517 11.2389H83.5406C84.4758 11.2389 85.2847 11.0394 85.9696 10.6429C86.6546 10.2464 87.1841 9.68199 87.5582 8.95219C87.9323 8.22239 88.1217 7.36366 88.1217 6.37356C88.1217 5.38347 87.9323 4.52717 87.5509 3.80223C87.1696 3.0773 86.6376 2.51778 85.9526 2.12126C85.2677 1.72473 84.4637 1.52526 83.5406 1.52526H80.8517V11.2389Z" fill="currentColor"/>
<path d="M95.4403 12.6597C94.6241 12.6597 93.8881 12.4602 93.2323 12.0637C92.574 11.6671 92.0567 11.1198 91.6753 10.424C91.294 9.72829 91.1045 8.93768 91.1045 8.05706C91.1045 7.17643 91.2891 6.39554 91.6583 5.7144C92.0275 5.03568 92.5303 4.49806 93.1667 4.1064C93.8031 3.71474 94.5172 3.5177 95.3115 3.5177C95.9406 3.5177 96.5042 3.63447 96.9997 3.868C97.4952 4.10154 97.9154 4.41778 98.2628 4.81431C98.6101 5.21083 98.8773 5.65844 99.0619 6.15227C99.2465 6.64854 99.3388 7.15697 99.3388 7.67756C99.3388 7.78703 99.334 7.90866 99.3218 8.04489C99.3121 8.18112 99.2951 8.31979 99.2732 8.46088H91.8891V7.31752H98.5737L97.9859 7.80649C98.083 7.20806 98.015 6.67287 97.7818 6.1985C97.5486 5.72413 97.2134 5.34949 96.7786 5.07217C96.3439 4.79485 95.8556 4.65619 95.3115 4.65619C94.7674 4.65619 94.2646 4.79728 93.8031 5.07947C93.3416 5.36166 92.9797 5.75818 92.7198 6.26418C92.4599 6.77017 92.3554 7.37104 92.4113 8.06922C92.3579 8.76496 92.4672 9.37313 92.7465 9.88885C93.0234 10.407 93.4048 10.806 93.8881 11.0882C94.3715 11.3703 94.8913 11.5139 95.4451 11.5139C96.0864 11.5139 96.6232 11.3606 97.058 11.0565C97.4928 10.7524 97.845 10.3705 98.117 9.91317L99.1615 10.4678C98.9866 10.8595 98.7218 11.222 98.3623 11.5528C98.0029 11.8861 97.5778 12.1512 97.0823 12.3531C96.5868 12.5551 96.0427 12.6548 95.4451 12.6548L95.4403 12.6597Z" fill="currentColor"/>
<path d="M103.655 12.4626L100.247 3.71228H101.617L104.486 11.3849H104.046L106.932 3.71228H108.319L104.879 12.4626H103.657H103.655Z" fill="currentColor"/>
<path d="M113.568 12.6597C112.752 12.6597 112.016 12.4602 111.36 12.0637C110.701 11.6671 110.184 11.1198 109.803 10.424C109.421 9.72829 109.232 8.93768 109.232 8.05706C109.232 7.17643 109.417 6.39554 109.786 5.7144C110.155 5.03568 110.658 4.49806 111.294 4.1064C111.931 3.71474 112.645 3.5177 113.439 3.5177C114.068 3.5177 114.632 3.63447 115.127 3.868C115.623 4.10154 116.043 4.41778 116.39 4.81431C116.738 5.21083 117.005 5.65844 117.189 6.15227C117.374 6.64854 117.466 7.15697 117.466 7.67756C117.466 7.78703 117.461 7.90866 117.449 8.04489C117.44 8.18112 117.423 8.31979 117.401 8.46088H110.017V7.31752H116.701L116.113 7.80649C116.21 7.20806 116.142 6.67287 115.909 6.1985C115.676 5.72413 115.341 5.34949 114.906 5.07217C114.471 4.79485 113.983 4.65619 113.439 4.65619C112.895 4.65619 112.392 4.79728 111.931 5.07947C111.469 5.36166 111.107 5.75818 110.847 6.26418C110.587 6.77017 110.483 7.37104 110.539 8.06922C110.485 8.76496 110.595 9.37313 110.874 9.88885C111.151 10.407 111.532 10.806 112.016 11.0882C112.499 11.3703 113.019 11.5139 113.573 11.5139C114.214 11.5139 114.751 11.3606 115.185 11.0565C115.62 10.7524 115.972 10.3705 116.244 9.91317L117.289 10.4678C117.114 10.8595 116.849 11.222 116.49 11.5528C116.13 11.8861 115.705 12.1512 115.21 12.3531C114.714 12.5551 114.17 12.6548 113.573 12.6548L113.568 12.6597Z" fill="currentColor"/>
<path d="M119.616 12.4626V0.104614H120.838V12.4626H119.616Z" fill="currentColor"/>
<path d="M127.44 12.6597C126.614 12.6597 125.864 12.4602 125.191 12.0637C124.518 11.6671 123.981 11.1222 123.585 10.4313C123.189 9.74045 122.99 8.9547 122.99 8.07165C122.99 7.18859 123.185 6.4223 123.578 5.73628C123.969 5.05027 124.499 4.51022 125.167 4.11127C125.835 3.71474 126.592 3.51526 127.44 3.51526C128.288 3.51526 129.046 3.71231 129.714 4.10397C130.382 4.49563 130.909 5.03567 131.295 5.71925C131.681 6.40527 131.873 7.18859 131.873 8.06921C131.873 8.94984 131.671 9.75262 131.271 10.4435C130.867 11.1344 130.333 11.6769 129.665 12.0685C128.997 12.4602 128.254 12.6572 127.44 12.6572V12.6597ZM127.44 11.4336C128.028 11.4336 128.558 11.2876 129.029 10.9933C129.5 10.6989 129.876 10.2975 130.153 9.78424C130.43 9.27338 130.569 8.7017 130.569 8.06921C130.569 7.43672 130.43 6.87234 130.153 6.37121C129.876 5.87008 129.502 5.47355 129.029 5.1792C128.555 4.88485 128.026 4.73889 127.44 4.73889C126.855 4.73889 126.323 4.88485 125.852 5.1792C125.378 5.47355 125.001 5.87008 124.717 6.37121C124.435 6.87234 124.295 7.43672 124.295 8.06921C124.295 8.7017 124.435 9.27094 124.717 9.78424C124.999 10.2951 125.378 10.6989 125.852 10.9933C126.325 11.2876 126.855 11.4336 127.44 11.4336Z" fill="currentColor"/>
<path d="M134.025 15.7272V3.7123H135.247V5.67061L135.05 5.3276C135.397 4.77295 135.861 4.33264 136.444 4.00423C137.025 3.67825 137.69 3.51526 138.441 3.51526C139.267 3.51526 140.003 3.71474 140.649 4.11127C141.295 4.50779 141.807 5.05027 142.181 5.73628C142.556 6.4223 142.745 7.20562 142.745 8.08624C142.745 8.96687 142.558 9.73802 142.181 10.4289C141.807 11.1198 141.295 11.6647 140.649 12.0612C140.003 12.4577 139.267 12.6572 138.441 12.6572C137.69 12.6572 137.015 12.4845 136.41 12.1439C135.808 11.8009 135.354 11.3144 135.05 10.6819L135.247 10.5019V15.7272H134.025ZM138.378 11.4336C138.965 11.4336 139.488 11.2876 139.952 10.9933C140.413 10.6989 140.778 10.3 141.045 9.79397C141.312 9.28798 141.443 8.71873 141.443 8.08867C141.443 7.45861 141.309 6.87477 141.045 6.37364C140.778 5.87251 140.413 5.47599 139.952 5.18164C139.49 4.88728 138.965 4.74132 138.378 4.74132C137.79 4.74132 137.26 4.88728 136.789 5.18164C136.318 5.47599 135.941 5.87494 135.664 6.38094C135.388 6.88693 135.249 7.45618 135.249 8.08624C135.249 8.7163 135.388 9.28554 135.664 9.79154C135.941 10.2975 136.315 10.6965 136.789 10.9908C137.263 11.2852 137.792 11.4312 138.378 11.4312V11.4336Z" fill="currentColor"/>
<path d="M148.876 12.6597C148.06 12.6597 147.324 12.4602 146.668 12.0637C146.01 11.6671 145.492 11.1198 145.111 10.424C144.729 9.72829 144.54 8.93768 144.54 8.05706C144.54 7.17643 144.725 6.39554 145.094 5.7144C145.463 5.03568 145.966 4.49806 146.602 4.1064C147.239 3.71474 147.953 3.5177 148.747 3.5177C149.376 3.5177 149.94 3.63447 150.435 3.868C150.931 4.10154 151.351 4.41778 151.698 4.81431C152.046 5.21083 152.313 5.65844 152.497 6.15227C152.682 6.64854 152.774 7.15697 152.774 7.67756C152.774 7.78703 152.769 7.90866 152.757 8.04489C152.748 8.18112 152.731 8.31979 152.709 8.46088H145.325V7.31752H152.009L151.421 7.80649C151.519 7.20806 151.451 6.67287 151.217 6.1985C150.984 5.72413 150.649 5.34949 150.214 5.07217C149.779 4.79485 149.291 4.65619 148.747 4.65619C148.203 4.65619 147.7 4.79728 147.239 5.07947C146.777 5.36166 146.415 5.75818 146.155 6.26418C145.895 6.77017 145.791 7.37104 145.847 8.06922C145.793 8.76496 145.903 9.37313 146.182 9.88885C146.459 10.407 146.84 10.806 147.324 11.0882C147.807 11.3703 148.327 11.5139 148.881 11.5139C149.522 11.5139 150.059 11.3606 150.494 11.0565C150.928 10.7524 151.281 10.3705 151.553 9.91317L152.597 10.4678C152.422 10.8595 152.157 11.222 151.798 11.5528C151.438 11.8861 151.013 12.1512 150.518 12.3531C150.022 12.5551 149.478 12.6548 148.881 12.6548L148.876 12.6597Z" fill="currentColor"/>
<path d="M154.924 12.4625V3.71224H156.146V5.14994L155.983 4.9383C156.19 4.52475 156.503 4.19877 156.921 3.95794C157.339 3.71954 157.846 3.5979 158.446 3.5979H159V4.82153H158.235C157.606 4.82153 157.098 5.01858 156.719 5.41024C156.338 5.8019 156.149 6.35655 156.149 7.07662V12.465H154.927L154.924 12.4625Z" fill="currentColor"/>
<path d="M79.5474 27.8054V15.6421H83.7204C84.5147 15.6421 85.2094 15.7978 85.8069 16.1067C86.4044 16.4181 86.8684 16.8536 87.2011 17.4131C87.5315 17.9726 87.6991 18.6245 87.6991 19.3641C87.6991 20.1036 87.5339 20.7507 87.2011 21.3078C86.8684 21.8624 86.4069 22.2954 85.8142 22.6068C85.2215 22.9182 84.5244 23.0715 83.7204 23.0715H80.8517V27.8054H79.5474ZM80.8517 21.8454H83.786C84.3082 21.8454 84.7648 21.7457 85.1559 21.5437C85.547 21.3418 85.8506 21.0548 86.0692 20.6777C86.2854 20.3031 86.3947 19.8579 86.3947 19.347C86.3947 18.8362 86.2854 18.3934 86.0692 18.0237C85.8506 17.6539 85.547 17.3693 85.1559 17.1674C84.7648 16.9655 84.3082 16.8657 83.786 16.8657H80.8517V21.8454Z" fill="currentColor"/>
<path d="M89.8486 27.8053V15.4474H91.0704V27.8053H89.8486Z" fill="currentColor"/>
<path d="M96.1083 28C95.5545 28 95.059 27.8929 94.6242 27.6813C94.1894 27.4697 93.8469 27.1777 93.5967 26.808C93.3465 26.4382 93.2227 26.0125 93.2227 25.5357C93.2227 25.0589 93.3198 24.6624 93.5166 24.2877C93.7109 23.9131 94.0169 23.5944 94.4299 23.3317C94.8428 23.0714 95.3699 22.8865 96.0111 22.777L99.4336 22.2054V23.3147L96.3026 23.8377C95.6735 23.9472 95.2193 24.1491 94.9424 24.441C94.6655 24.7329 94.527 25.0832 94.527 25.4846C94.527 25.886 94.6825 26.2095 94.991 26.4796C95.3019 26.752 95.7002 26.8883 96.1885 26.8883C96.786 26.8883 97.3082 26.7593 97.7527 26.5039C98.1973 26.2485 98.5446 25.903 98.7948 25.4676C99.045 25.0321 99.1688 24.548 99.1688 24.0153V21.7943C99.1688 21.2712 98.9794 20.8479 98.598 20.522C98.2167 20.196 97.7236 20.033 97.1139 20.033C96.582 20.033 96.1132 20.1668 95.7124 20.432C95.3092 20.6996 95.0104 21.045 94.8161 21.4683L93.7085 20.865C93.8712 20.4952 94.1287 20.1571 94.4833 19.853C94.8355 19.5489 95.2412 19.3056 95.6978 19.1256C96.1545 18.9456 96.6281 18.8556 97.1163 18.8556C97.7576 18.8556 98.326 18.9797 98.8191 19.2302C99.3146 19.4808 99.6984 19.8262 99.9753 20.2665C100.252 20.7069 100.391 21.2153 100.391 21.7918V27.8005H99.1688V26.0538L99.3486 26.2339C99.1956 26.5598 98.96 26.8566 98.6393 27.1242C98.3187 27.3918 97.9446 27.6035 97.5147 27.7616C97.0848 27.9197 96.616 27.9976 96.1059 27.9976L96.1083 28Z" fill="currentColor"/>
<path d="M106.084 27.9027C105.302 27.9027 104.697 27.674 104.275 27.2167C103.85 26.7594 103.638 26.1074 103.638 25.2584V20.2787H102.025V19.0551H102.433C102.803 19.0551 103.097 18.9335 103.313 18.6878C103.529 18.4421 103.638 18.1356 103.638 17.7658V17.0311H104.86V19.0551H106.784V20.2787H104.86V25.2584C104.86 25.5528 104.904 25.8106 104.991 26.0344C105.079 26.2582 105.227 26.4334 105.441 26.5647C105.652 26.6961 105.939 26.7618 106.296 26.7618C106.383 26.7618 106.485 26.7569 106.606 26.7448C106.726 26.735 106.83 26.7229 106.917 26.7131V27.8078C106.786 27.8395 106.64 27.8662 106.478 27.8808C106.315 27.8979 106.184 27.9052 106.087 27.9052L106.084 27.9027Z" fill="currentColor"/>
<path d="M109.963 27.8053V20.2787H108.219V19.055H109.963V18.2717C109.963 17.6636 110.099 17.1478 110.371 16.7294C110.643 16.311 111 15.9923 111.447 15.7734C111.892 15.5569 112.37 15.4474 112.883 15.4474C112.992 15.4474 113.116 15.4547 113.257 15.4717C113.398 15.4887 113.512 15.5082 113.599 15.5301V16.6394C113.524 16.6175 113.42 16.6053 113.291 16.598C113.16 16.5932 113.068 16.5907 113.014 16.5907C112.492 16.5907 112.057 16.7148 111.71 16.9654C111.362 17.2159 111.187 17.6514 111.187 18.2717V19.055H113.323V20.2787H111.187V27.8053H109.966H109.963Z" fill="currentColor"/>
<path d="M119.077 28C118.251 28 117.5 27.8005 116.828 27.404C116.155 27.0075 115.618 26.4625 115.222 25.7717C114.826 25.0808 114.627 24.295 114.627 23.412C114.627 22.5289 114.821 21.7626 115.215 21.0766C115.606 20.3906 116.135 19.8506 116.803 19.4516C117.471 19.0551 118.229 18.8556 119.077 18.8556C119.925 18.8556 120.682 19.0526 121.35 19.4443C122.018 19.836 122.545 20.376 122.932 21.0596C123.318 21.7456 123.51 22.5289 123.51 23.4095C123.51 24.2902 123.308 25.093 122.907 25.7838C122.504 26.4747 121.97 27.0172 121.302 27.4088C120.634 27.8005 119.891 27.9976 119.077 27.9976V28ZM119.077 26.7764C119.665 26.7764 120.194 26.6304 120.665 26.336C121.137 26.0417 121.513 25.6403 121.79 25.127C122.067 24.6161 122.205 24.0445 122.205 23.412C122.205 22.7795 122.067 22.2151 121.79 21.714C121.513 21.2128 121.139 20.8163 120.665 20.522C120.192 20.2276 119.662 20.0817 119.077 20.0817C118.491 20.0817 117.96 20.2276 117.488 20.522C117.015 20.8163 116.638 21.2128 116.354 21.714C116.072 22.2151 115.931 22.7795 115.931 23.412C115.931 24.0445 116.072 24.6137 116.354 25.127C116.636 25.6379 117.015 26.0417 117.488 26.336C117.962 26.6304 118.491 26.7764 119.077 26.7764Z" fill="currentColor"/>
<path d="M125.662 27.8054V19.0551H126.884V20.4928L126.721 20.2812C126.928 19.8676 127.241 19.5417 127.659 19.3008C128.077 19.0624 128.584 18.9408 129.184 18.9408H129.738V20.1644H128.973C128.344 20.1644 127.836 20.3615 127.457 20.7531C127.076 21.1448 126.886 21.6994 126.886 22.4195V27.8079H125.665L125.662 27.8054Z" fill="currentColor"/>
<path d="M131.173 27.8054V19.0551H132.395V20.719L132.198 20.4733C132.436 19.9625 132.793 19.5635 133.267 19.2813C133.741 18.9991 134.258 18.8556 134.824 18.8556C135.497 18.8556 136.107 19.0453 136.651 19.4273C137.195 19.8092 137.581 20.303 137.809 20.9136L137.467 20.9307C137.683 20.2568 138.062 19.7411 138.601 19.3883C139.138 19.0356 139.733 18.858 140.387 18.858C140.974 18.858 141.514 18.9991 142.009 19.2837C142.505 19.5659 142.901 19.9552 143.199 20.4514C143.498 20.9477 143.649 21.5048 143.649 22.1251V27.8054H142.427V22.597C142.427 22.0643 142.332 21.6118 142.143 21.242C141.953 20.8723 141.696 20.5852 141.368 20.3857C141.042 20.1838 140.666 20.0841 140.243 20.0841C139.821 20.0841 139.456 20.1838 139.119 20.3857C138.781 20.5877 138.516 20.8747 138.319 21.2518C138.123 21.6288 138.026 22.0764 138.026 22.5995V27.8078H136.804V22.5995C136.804 22.0667 136.709 21.6142 136.52 21.2445C136.33 20.8747 136.07 20.5877 135.745 20.3882C135.419 20.1863 135.043 20.0865 134.62 20.0865C134.197 20.0865 133.819 20.1863 133.488 20.3882C133.155 20.5901 132.893 20.8771 132.699 21.2542C132.502 21.6288 132.405 22.0789 132.405 22.6019V27.8102H131.183L131.173 27.8054Z" fill="currentColor"/>
</svg>
