<?xml version="1.0" encoding="utf-8"?>
<!-- Generator: Adobe Illustrator 28.2.0, SVG Export Plug-In . SVG Version: 6.00 Build 0)  -->
<svg version="1.1" id="Layer_2_00000133509666921268819120000006238597939132357806_"
	 xmlns="http://www.w3.org/2000/svg" xmlns:xlink="http://www.w3.org/1999/xlink" x="0px" y="0px" viewBox="0 0 64 64"
	 style="enable-background:new 0 0 64 64;" xml:space="preserve">
<style type="text/css">
	.st0{fill:black;}
</style>
<path class="st0" d="M60,26.4l-3.1-0.5c-0.4-1.7-1-3.3-1.7-4.8l2.1-2.2c1.2-1.2,1.2-3.2,0.2-4.5l-3.2-4c-1.1-1.3-3-1.7-4.4-0.8
	L47,11c-1.4-1-2.8-1.8-4.3-2.6l0.1-3.1c0.1-1.7-1.1-3.2-2.8-3.6l-5.1-1C33.3,0.5,31.6,1.4,31,3l-1.1,3.2C28.2,6.3,26.6,6.6,25,7
	l-2-2.6c-1-1.4-2.9-1.8-4.4-0.9L14.1,6c-1.5,0.8-2.2,2.6-1.6,4.2l1.2,3.3c-1.1,1.1-2.2,2.3-3.1,3.7l-3.3-0.7c-1.7-0.4-3.4,0.5-4,2.1
	l-1.9,4.8c-0.6,1.6,0,3.4,1.5,4.3l3.1,1.8C6,30,6,30.7,6,31.4c0,0.1,0,0.3,0,0.4c0,0,0,0,0,0c0,0,0,0,0,0c0,0.7,0,1.5,0.1,2.2
	L3,35.6c-1.5,0.8-2.2,2.5-1.7,4.2l1.7,4.9c0.6,1.6,2.2,2.6,3.9,2.3l3.5-0.6c0.9,1.3,1.9,2.5,3,3.7L12,53.2c-0.7,1.6-0.1,3.4,1.4,4.3
	l4.4,2.7c1.5,0.9,3.3,0.6,4.4-0.7l2.2-2.7c1.5,0.5,3.1,0.8,4.7,0.9l1,3.2c0.5,1.5,1.8,2.4,3.3,2.4c0.2,0,0.4,0,0.5,0l5.1-0.8
	c1.7-0.3,2.9-1.7,2.9-3.4l0-3.3c1.5-0.7,3-1.5,4.3-2.4l2.7,1.7c1.5,0.9,3.3,0.7,4.5-0.6l3.4-3.9c1.1-1.3,1.1-3.2,0-4.5l-2.1-2.5
	c0.8-1.5,1.4-3.1,1.8-4.7l3.1-0.4c1.7-0.2,3-1.6,3-3.4l0.1-5.2C62.9,28.2,61.7,26.7,60,26.4z M58.8,34.5l-4,0.5
	c-0.8,0.1-1.5,0.7-1.7,1.6c-0.3,1.4-0.7,2.7-1.3,4H30.8c-0.8-2.1-2.8-3.6-5.2-3.6c-3.1,0-5.6,2.5-5.6,5.6s2.5,5.6,5.6,5.6
	c2.4,0,4.4-1.5,5.2-3.6h19.9c0.1,0.2,0.2,0.4,0.3,0.6l2.7,3.1l-2.8,3.2l-3.4-2.2c-0.7-0.5-1.6-0.4-2.3,0.1c-1.7,1.3-3.7,2.4-5.8,3.2
	c-0.8,0.3-1.3,1-1.3,1.9l0,4.2l-4.2,0.6l-1.3-4c-0.3-0.8-1-1.4-1.8-1.4c-2.2-0.1-4.3-0.5-6.3-1.2c-0.2-0.1-0.4-0.1-0.7-0.1
	c-0.6,0-1.2,0.3-1.5,0.7l-2.8,3.4l-3.6-2.2l1.7-4c0.3-0.8,0.1-1.7-0.5-2.2c-1.6-1.4-2.9-3.1-4-4.9c-0.4-0.7-1.3-1.1-2.1-0.9L6.6,43
	l-1.4-4l3.9-2c0.8-0.4,1.2-1.2,1.1-2c-0.1-0.4-0.1-0.7-0.1-1.1h25.7c0.8,2.1,2.8,3.6,5.2,3.6c3.1,0,5.6-2.5,5.6-5.6
	s-2.5-5.6-5.6-5.6c-2.4,0-4.4,1.5-5.2,3.6H10.1c0-0.4,0.1-0.8,0.1-1.2c0.1-0.8-0.3-1.6-1-2l-3.9-2.2l1.5-3.9l4.2,0.9
	c0.8,0.2,1.7-0.2,2.1-0.9c1.1-1.8,2.5-3.5,4.2-4.9c0.6-0.5,0.8-1.4,0.6-2.2l-1.5-4.1l3.7-2l2.5,3.3c0.5,0.7,1.4,1,2.2,0.7
	c2.1-0.7,4.2-1.1,6.4-1.1c0.8,0,1.6-0.5,1.8-1.3l1.4-4l4.1,0.8l-0.2,4c0,0.9,0.5,1.6,1.3,2c2.1,0.8,4,2,5.7,3.4
	c0.6,0.5,1.5,0.6,2.3,0.2l3.6-2.1l2.6,3.3l-2.7,2.9H30.8c-0.8-2.1-2.8-3.6-5.2-3.6c-3.1,0-5.6,2.5-5.6,5.6s2.5,5.6,5.6,5.6
	c2.4,0,4.4-1.5,5.2-3.6h21c0.6,1.5,1.1,3,1.4,4.6c0.2,0.8,0.8,1.5,1.6,1.6l4,0.7L58.8,34.5z M27.1,42.5c0,0.9-0.7,1.6-1.6,1.6
	S24,43.4,24,42.5s0.7-1.6,1.6-1.6S27.1,41.6,27.1,42.5z M39.4,31.8c0-0.9,0.7-1.6,1.6-1.6s1.6,0.7,1.6,1.6c0,0.9-0.7,1.6-1.6,1.6
	S39.4,32.7,39.4,31.8z M27.2,21.3c0,0.9-0.7,1.6-1.6,1.6S24,22.2,24,21.3s0.7-1.6,1.6-1.6S27.2,20.4,27.2,21.3z"/>
</svg>
