<svg width="30" height="23" viewBox="0 -5 30 30" fill="none" xmlns="http://www.w3.org/2000/svg">
<path d="M0 4C0 1.79086 1.79086 0 4 0H26C28.2091 0 30 1.79086 30 4V18.5C30 20.7091 28.2091 22.5 26 22.5H4C1.79086 22.5 0 20.7091 0 18.5V4Z" fill="#986EE2"/>
<path d="M6.27307 9.15318V10.5334H6.59511C7.20144 10.5334 7.50461 10.2998 7.50461 9.83266C7.50461 9.59909 7.44091 9.42804 7.31351 9.31951C7.18847 9.20863 6.99029 9.15318 6.71897 9.15318H6.27307ZM6.77205 8.34277C7.33828 8.34277 7.76767 8.46545 8.06022 8.71082C8.35513 8.95383 8.50259 9.32069 8.50259 9.81143C8.50259 10.3022 8.3457 10.6808 8.03191 10.9474C7.72049 11.2117 7.27458 11.3438 6.6942 11.3438H6.27307V13H5.2857V8.34277H6.77205Z" fill="white"/>
<path d="M12.9664 13H11.9011L11.5649 11.8923H9.86626L9.53006 13H8.46484L10.1069 8.32508H11.3137L12.9664 13ZM10.114 11.0642H11.3278L10.8005 9.36198C10.7628 9.23458 10.7345 9.12959 10.7156 9.04702C10.6519 9.30182 10.4514 9.97422 10.114 11.0642Z" fill="white"/>
<path d="M14.8934 9.1638V13H13.9061V9.1638H12.6427V8.34277H16.1568V9.1638H14.8934Z" fill="white"/>
<path d="M18.7175 9.1001C18.347 9.1001 18.0592 9.2393 17.854 9.51769C17.6511 9.79845 17.5496 10.1877 17.5496 10.6855C17.5496 11.7236 17.9389 12.2427 18.7175 12.2427C19.0478 12.2427 19.4441 12.1613 19.9065 11.9985V12.8266C19.5267 12.9847 19.0997 13.0637 18.6254 13.0637C17.9483 13.0637 17.4305 12.8584 17.0719 12.4479C16.7132 12.0351 16.5339 11.4452 16.5339 10.6785C16.5269 9.9518 16.7227 9.36788 17.1214 8.92669C17.5225 8.48315 18.0545 8.26609 18.7175 8.27553C19.1704 8.27553 19.6258 8.38524 20.0835 8.60465L19.765 9.40799C19.3332 9.20273 18.9841 9.1001 18.7175 9.1001Z" fill="white"/>
<path d="M24.714 8.34277V13H23.7301V10.9899H21.8863V13H20.899V8.34277H21.8863V10.1689H23.7301V8.34277H24.714Z" fill="white"/>
</svg>
