<!--
 ~ Copyright (c) 2025, WSO2 LLC. (https://www.wso2.com) All Rights Reserved.
 ~
 ~ WSO2 LLC. licenses this file to you under the Apache License,
 ~ Version 2.0 (the "License"); you may not use this file except
 ~ in compliance with the License.
 ~ You may obtain a copy of the License at
 ~
 ~     http://www.apache.org/licenses/LICENSE-2.0
 ~
 ~ Unless required by applicable law or agreed to in writing,
 ~ software distributed under the License is distributed on an
 ~ "AS IS" BASIS, WITHOUT WARRANTIES OR CONDITIONS OF ANY
 ~ KIND, either express or implied. See the License for the
 ~ specific language governing permissions and limitations
 ~ under the License.
-->
<svg xmlns="http://www.w3.org/2000/svg" width="24" height="24" viewBox="0 0 128 128">
	<path fill="white" d="M8.838 38.03L0 46.935l8.938 8.837L12.4 52.27l-3.132.01l-5.391-5.351l5.352-5.393l3.128-.012l-3.52-3.496zm3.52 3.495l.716.711l.713-.716l-1.43.005zm.716.711l-4.033 4.065l8.098-.03zm4.065 4.035l.601.598l-.613.621l11.416-.043l-.635-.63l.582-.587zm11.351-.04l4.17-.016l-2.086-2.07l2.281-.008l2.696 2.675l-2.676 2.696l-2.248.008L33.131 52l5.183-5.223l-5.222-5.183zm2.137 3.285l-.016-.016l-.015.016zm-.016-.016l2.053-2.068l-4.121.015zm-13.484-2.01l-8.08.03l4.062 4.033zm-4.018 4.063l-.709.718l1.428-.005zm102.381-7.71q-3.773.001-6.996 1.339q-3.223 1.336-5.586 3.7t-3.699 5.61q-1.339 3.247-1.338 7.113q-.001 3.87 1.336 7.118q1.336 3.246 3.701 5.609q2.363 2.365 5.586 3.7q3.224 1.336 6.996 1.337q2.1-.001 3.987-.476a16.5 16.5 0 0 0 3.51-1.315a13.4 13.4 0 0 0 2.89-1.98A13 13 0 0 0 128 73.162l-2.816-2.006q-.956 1.48-2.077 2.46a9.8 9.8 0 0 1-2.388 1.552q-1.266.573-2.578.81a15 15 0 0 1-2.65.24q-3.249 0-5.827-1.195q-2.578-1.192-4.367-3.199q-1.79-2.004-2.746-4.654a16.3 16.3 0 0 1-.955-5.565q0-2.91.955-5.56q.956-2.651 2.746-4.656t4.367-3.2q2.578-1.193 5.826-1.193q1.335 0 2.674.383q1.337.383 2.508 1.002q1.17.62 2.076 1.431q.908.813 1.434 1.624l3.005-2.245q-2.242-2.863-5.394-4.105q-3.15-1.24-6.303-1.24v-.002zm-71.525.86V78.51h3.437V62.8h5.73l9.263 15.71h4.203l-9.743-16.043c2.8-.254 4.944-1.186 6.424-2.793q2.22-2.412 2.219-5.945q0-4.536-2.982-6.782q-2.985-2.244-8.143-2.244zm28.553 0V78.51h3.437V62.8h6.399q5.156 0 8.14-2.269q2.985-2.265 2.985-6.802t-2.985-6.782t-8.14-2.244zm-25.116 3.152h6.112q2.29 0 3.89.454t2.557 1.265q.954.812 1.383 1.887t.43 2.268q0 1.242-.43 2.316a4.6 4.6 0 0 1-1.383 1.861q-.956.788-2.557 1.266q-1.6.476-3.89.476h-6.112zm28.553 0h5.54q2.29 0 3.89.454q1.599.454 2.554 1.265q.954.812 1.385 1.887a6 6 0 0 1 .432 2.268q-.002 1.242-.432 2.316a4.6 4.6 0 0 1-1.385 1.861q-.955.788-2.554 1.266q-1.6.476-3.89.476h-5.54zM22.67 55.59q-2.484 0-4.56.885a10.7 10.7 0 0 0-3.583 2.459a11.7 11.7 0 0 0-2.363 3.675q-.86 2.101-.86 4.537t.909 4.536a10.9 10.9 0 0 0 2.48 3.605a11.6 11.6 0 0 0 3.702 2.363q2.125.86 4.56.86a11.5 11.5 0 0 0 4.633-.955q2.195-.956 3.723-3.246h.095v4.01q0 1.814-.453 3.413a7.3 7.3 0 0 1-1.48 2.793q-1.027 1.193-2.698 1.887q-1.671.691-4.058.692q-2.722 0-4.944-1.122q-2.22-1.122-3.603-2.984l-2.342 2.482q2.15 2.292 4.777 3.391q2.626 1.098 5.967 1.098q3.772.001 6.114-1.145q2.339-1.147 3.652-2.865a9.55 9.55 0 0 0 1.766-3.772q.455-2.055.455-3.869V56.162h-3.153v3.727h-.095q-.955-1.29-2.053-2.125a10.5 10.5 0 0 0-2.22-1.315a10 10 0 0 0-2.245-.668a13 13 0 0 0-2.123-.19zm.38 2.865q1.959 0 3.534.693q1.576.692 2.674 1.862a8 8 0 0 1 1.672 2.72a9.5 9.5 0 0 1 .574 3.32q.045 1.958-.6 3.532a7.6 7.6 0 0 1-1.838 2.7a8.7 8.7 0 0 1-2.744 1.741a8.7 8.7 0 0 1-3.271.622q-1.768-.001-3.272-.692a8.5 8.5 0 0 1-2.625-1.861a8.7 8.7 0 0 1-1.767-2.723a8.6 8.6 0 0 1-.645-3.318a8.6 8.6 0 0 1 .645-3.32a8.7 8.7 0 0 1 1.767-2.72a8.6 8.6 0 0 1 2.625-1.863a7.8 7.8 0 0 1 3.272-.693z" />
</svg>
