<!--
 ~ Copyright (c) 2025, WSO2 LLC. (https://www.wso2.com) All Rights Reserved.
 ~
 ~ WSO2 LLC. licenses this file to you under the Apache License,
 ~ Version 2.0 (the "License"); you may not use this file except
 ~ in compliance with the License.
 ~ You may obtain a copy of the License at
 ~
 ~     http://www.apache.org/licenses/LICENSE-2.0
 ~
 ~ Unless required by applicable law or agreed to in writing,
 ~ software distributed under the License is distributed on an
 ~ "AS IS" BASIS, WITHOUT WARRANTIES OR CONDITIONS OF ANY
 ~ KIND, either express or implied. See the License for the
 ~ specific language governing permissions and limitations
 ~ under the License.
-->
<svg xmlns="http://www.w3.org/2000/svg" width="32" height="32" viewBox="0 0 32 32"><path fill="white" d="M16 28h14v2H16zm11-2h-8c-1.103 0-2-.897-2-2v-5c0-1.103.897-2 2-2h8c1.103 0 2 .897 2 2v5c0 1.103-.897 2-2 2m-8-7v5h8v-5zm-4 4h-5c-1.103 0-2-.897-2-2v-4h2v4h5zM2 13h14v2H2zm11-2H5c-1.103 0-2-.897-2-2V4c0-1.103.897-2 2-2h8c1.103 0 2 .897 2 2v5c0 1.103-.897 2-2 2M5 4v5h8V4z"/></svg>