<!--
 ~ Copyright (c) 2025, WSO2 LLC. (https://www.wso2.com) All Rights Reserved.
 ~
 ~ WSO2 LLC. licenses this file to you under the Apache License,
 ~ Version 2.0 (the "License"); you may not use this file except
 ~ in compliance with the License.
 ~ You may obtain a copy of the License at
 ~
 ~     http://www.apache.org/licenses/LICENSE-2.0
 ~
 ~ Unless required by applicable law or agreed to in writing,
 ~ software distributed under the License is distributed on an
 ~ "AS IS" BASIS, WITHOUT WARRANTIES OR CONDITIONS OF ANY
 ~ KIND, either express or implied. See the License for the
 ~ specific language governing permissions and limitations
 ~ under the License.
-->
<svg xmlns="http://www.w3.org/2000/svg" width="2048" height="2048" viewBox="0 0 2048 2048"><path fill="white" d="M1920 0v2048H256v-254H128v-128h128v-257H128v-128h128V769H128V641h128V385H128V257h128V0zm-128 128H384v1792h1408zm-128 384h-640V384h640zm0 256h-640V640h640zm-960 892q-39 0-73-14t-60-40t-40-60t-15-74q0-39 14-73t40-59t60-41t74-15q39 0 73 15t59 40t41 60t15 73q0 39-15 73t-40 60t-60 40t-73 15m0-256q-29 0-48 19t-20 49q0 29 19 48t49 20q29 0 48-19t20-49q0-29-19-48t-49-20m0-640q-39 0-73-14t-60-40t-40-60t-15-74q0-39 14-73t40-59t60-41t74-15q39 0 73 15t59 40t41 60t15 73q0 39-15 73t-40 60t-60 40t-73 15m0-256q-29 0-48 19t-20 49q0 29 19 48t49 20q29 0 48-19t20-49q0-29-19-48t-49-20m960 900h-640v-128h640zm0 256h-640v-128h640z"/></svg>