<!--
 ~ Copyright (c) 2025, WSO2 LLC. (https://www.wso2.com) All Rights Reserved.
 ~
 ~ WSO2 LLC. licenses this file to you under the Apache License,
 ~ Version 2.0 (the "License"); you may not use this file except
 ~ in compliance with the License.
 ~ You may obtain a copy of the License at
 ~
 ~     http://www.apache.org/licenses/LICENSE-2.0
 ~
 ~ Unless required by applicable law or agreed to in writing,
 ~ software distributed under the License is distributed on an
 ~ "AS IS" BASIS, WITHOUT WARRANTIES OR CONDITIONS OF ANY
 ~ KIND, either express or implied. See the License for the
 ~ specific language governing permissions and limitations
 ~ under the License.
-->
<svg xmlns="http://www.w3.org/2000/svg" width="32" height="32" viewBox="0 0 32 32"><path fill="black" d="M10 6c-3.855 0-7 3.145-7 7c0 .422.074.813.148 1.203c-.68 1-1.148 2.172-1.148 3.485c0 3.445 2.793 6.246 6.227 6.296C9.484 25.184 11.129 26 13 26c1.922 0 3.598-.86 4.863-2.113c.059.004.067.008.137.008c1.598 0 2.898-.872 3.79-2.055c.398.07.788.16 1.21.16c3.855 0 7-3.145 7-7s-3.145-7-7-7c-.695 0-1.336.18-1.969.367C19.887 7.543 18.516 7 17 7c-.945 0-1.797.313-2.625.656C13.172 6.668 11.68 6 10 6m0 2c1.363 0 2.582.54 3.484 1.422l.524.508l.644-.344A4.94 4.94 0 0 1 17 9a4.95 4.95 0 0 1 3.207 1.168l.453.379l.55-.211A4.985 4.985 0 0 1 28 15a4.985 4.985 0 0 1-6.297 4.824l-.777-.21l-.367.714c-.489.934-1.438 1.567-2.559 1.567l-.3-.036l-.528-.05l-.344.406A4.98 4.98 0 0 1 13 24a4.97 4.97 0 0 1-3.734-1.688l-.317-.355l-.472.023c-.215.008-.266.02-.165.02A4.296 4.296 0 0 1 4 17.687c0-1.007.36-1.921.953-2.667l.305-.38l-.117-.472A4.985 4.985 0 0 1 10 8m1.266 5c-.02 0-.036.016-.036.04v2.917c0 .023.016.043.036.043h.34c.023 0 .035-.02.035-.043v-2.918c0-.02-.016-.039-.036-.039zm5.933 0q-.363-.001-.562.203c-.133.133-.227.36-.274.625L16.34 14h-.3s-.04.012-.044.05l-.05.278c-.005.024.007.043.042.043h.293l-.293 1.633a2 2 0 0 1-.082.328a.6.6 0 0 1-.09.188c-.035.046-.066.078-.12.093a.5.5 0 0 1-.337-.011s-.03-.012-.046.023a10 10 0 0 0-.098.266c-.008.027.004.047.02.054a1 1 0 0 0 .124.035c.07.02.133.02.188.02c.125 0 .234-.02.328-.05a.65.65 0 0 0 .246-.169a1 1 0 0 0 .172-.297c.047-.12.082-.273.113-.449l.297-1.664h.438s.039 0 .047-.043l.046-.273c.004-.028-.007-.055-.043-.055h-.421c.003-.008.03-.266.082-.406a.4.4 0 0 1 .09-.14a.3.3 0 0 1 .113-.071a.54.54 0 0 1 .32.008c.043.011.047 0 .059-.02l.097-.277c.012-.031-.011-.043-.02-.047a1 1 0 0 0-.132-.031a1 1 0 0 0-.18-.016m-9.176 1c-.433 0-.734.242-.734.586v.008c0 .36.332.48.645.562l.05.016c.227.062.422.117.422.265v.004c0 .137-.129.235-.332.235c-.078 0-.332 0-.605-.16l-.078-.043c-.016-.008-.047-.02-.063.02l-.094.237c-.015.036.004.043.008.051c.047.028.09.047.133.07c.234.114.457.149.688.149c.472 0 .765-.23.765-.605v-.004c0-.348-.332-.473-.64-.563l-.04-.012c-.234-.07-.437-.129-.437-.27v-.01c0-.122.117-.208.3-.208c.204 0 .442.059.598.14c0 0 .047.024.063-.015c.012-.023.09-.219.098-.238c.007-.024-.008-.04-.024-.047A1.4 1.4 0 0 0 8.07 14zm1.965 0a2 2 0 0 0-.355.031s-.293.051-.414.14c0 0-.024.013-.008.048l.094.234c.011.031.043.02.043.02s.007-.004.02-.008c.257-.133.581-.125.581-.125c.145 0 .254.023.332.078c.07.05.11.133.11.297v.05c-.114-.015-.22-.027-.22-.027q-.081-.005-.21-.004a1.3 1.3 0 0 0-.328.04a.9.9 0 0 0-.278.12a.6.6 0 0 0-.19.204a.54.54 0 0 0-.075.285q0 .165.058.281a.56.56 0 0 0 .176.195a.9.9 0 0 0 .27.11c.105.02.226.031.355.031q.207-.001.406-.031c.133-.02.29-.051.336-.063c.043-.008.09-.02.09-.02c.035-.007.031-.038.031-.038v-1.13q0-.376-.21-.546q-.213-.17-.614-.172m3 0a1.1 1.1 0 0 0-.437.078a.88.88 0 0 0-.489.54q-.058.181-.058.394q.002.217.062.394q.06.183.196.313q.128.136.332.207c.133.05.297.074.484.074c.387-.004.586-.082.672-.125c.012-.008.027-.02.012-.059l-.09-.226c-.012-.035-.05-.024-.05-.024c-.099.036-.231.094-.548.094c-.207 0-.36-.055-.453-.144c-.101-.09-.148-.223-.156-.41h1.332s.035 0 .039-.032c0-.015.047-.258-.04-.535a.7.7 0 0 0-.171-.289a.7.7 0 0 0-.25-.176a1 1 0 0 0-.387-.074m1.903 0c-.43 0-.735.242-.735.586v.008c0 .36.336.48.645.562l.054.016c.227.062.422.117.422.265v.004c0 .137-.129.235-.336.235c-.078 0-.332 0-.605-.16q-.045-.022-.078-.043c-.008-.004-.047-.02-.063.02l-.09.237c-.015.036.004.043.008.051c.043.028.086.047.133.07a1.5 1.5 0 0 0 .688.149c.468 0 .765-.23.765-.605v-.004c0-.348-.332-.473-.64-.563l-.043-.012c-.235-.07-.438-.129-.438-.27v-.01c0-.122.121-.208.3-.208c.204 0 .446.059.602.14c0 0 .047.024.063-.015a4 4 0 0 1 .098-.238c.007-.024-.008-.04-.028-.047a1.4 1.4 0 0 0-.675-.168zm3.27 0q-.244 0-.427.078a.8.8 0 0 0-.297.215a.85.85 0 0 0-.183.316a1.4 1.4 0 0 0 0 .786a.85.85 0 0 0 .484.531a1.1 1.1 0 0 0 .422.074c.16 0 .3-.023.422-.078a.85.85 0 0 0 .305-.211a.8.8 0 0 0 .175-.316q.06-.183.06-.395c0-.137-.02-.27-.06-.39a.8.8 0 0 0-.175-.317a.9.9 0 0 0-.305-.215A1.1 1.1 0 0 0 18.16 14zm3.484 0q-.248 0-.442.078a.9.9 0 0 0-.312.215a.8.8 0 0 0-.192.316a1.1 1.1 0 0 0-.066.391q-.001.459.262.73q.262.27.777.27c.203 0 .41-.04.558-.094c0 0 .028-.011.016-.043l-.098-.246c-.011-.035-.05-.023-.05-.023a.7.7 0 0 1-.18.047a1.3 1.3 0 0 1-.219.015c-.191 0-.344-.05-.449-.156c-.11-.102-.172-.27-.172-.5c.004-.203.055-.36.152-.48q.146-.177.438-.176c.16 0 .285.02.414.054c0 0 .035.012.047-.023c.035-.09.062-.152.098-.25c.011-.031-.016-.043-.024-.047a3 3 0 0 0-.265-.062a2 2 0 0 0-.293-.016m1.632 0a1.1 1.1 0 0 0-.437.078a.87.87 0 0 0-.492.54a1.4 1.4 0 0 0-.055.394q0 .217.062.394a.75.75 0 0 0 .192.313q.134.136.332.207q.207.075.484.074c.387-.004.59-.082.672-.125c.016-.008.031-.02.012-.059l-.09-.226c-.012-.035-.05-.024-.05-.024c-.095.036-.231.094-.548.094c-.203 0-.355-.055-.453-.144c-.097-.09-.144-.223-.156-.41h1.332s.035 0 .043-.032c0-.015.043-.258-.043-.535a.7.7 0 0 0-.172-.289a.7.7 0 0 0-.25-.176a1 1 0 0 0-.383-.074m-2.89 0a.7.7 0 0 0-.348.055a.6.6 0 0 0-.227.16v-.156c0-.024-.011-.04-.035-.04h-.34c-.023 0-.042.016-.042.04v1.902c0 .02.02.039.043.039h.347c.024 0 .043-.02.043-.04v-.948c0-.13.016-.258.043-.34a.45.45 0 0 1 .117-.188a.5.5 0 0 1 .168-.093a.6.6 0 0 1 .324-.004q.036-.002.047-.04c.024-.054.086-.23.098-.265a.035.035 0 0 0-.016-.047a2 2 0 0 0-.222-.035m-7.43.328c.176 0 .293.063.375.18a.6.6 0 0 1 .09.289h-.953a.7.7 0 0 1 .11-.29c.077-.116.202-.179.378-.179m10.29 0c.175 0 .288.063.374.18a.56.56 0 0 1 .086.289h-.95a.7.7 0 0 1 .106-.29c.082-.116.207-.179.383-.179zm-5.087.008c.176 0 .3.055.383.172q.129.175.129.492q-.001.32-.125.5c-.086.113-.211.172-.387.172q-.262-.001-.379-.172q-.127-.18-.125-.5q0-.316.121-.492c.082-.113.207-.172.383-.172m-8.133.71c.192.005.364.032.364.032v.563s-.172.03-.36.043c-.273.011-.394-.075-.39-.075c-.055-.039-.059-.05-.079-.074a.27.27 0 0 1-.039-.16q0-.164.118-.238s.113-.094.386-.09z"/></svg>