<!--
 ~ Copyright (c) 2025, WSO2 LLC. (https://www.wso2.com) All Rights Reserved.
 ~
 ~ WSO2 LLC. licenses this file to you under the Apache License,
 ~ Version 2.0 (the "License"); you may not use this file except
 ~ in compliance with the License.
 ~ You may obtain a copy of the License at
 ~
 ~     http://www.apache.org/licenses/LICENSE-2.0
 ~
 ~ Unless required by applicable law or agreed to in writing,
 ~ software distributed under the License is distributed on an
 ~ "AS IS" BASIS, WITHOUT WARRANTIES OR CONDITIONS OF ANY
 ~ KIND, either express or implied. See the License for the
 ~ specific language governing permissions and limitations
 ~ under the License.
-->
<svg xmlns="http://www.w3.org/2000/svg" width="24" height="24" viewBox="0 0 24 24">
    <path fill="#000"
        d="M12 8a3 3 0 0 0-1 5.83a1 1 0 0 0 0 .17v6a1 1 0 0 0 2 0v-6a1 1 0 0 0 0-.17A3 3 0 0 0 12 8m0 4a1 1 0 1 1 1-1a1 1 0 0 1-1 1m-8.5-1a6.87 6.87 0 0 1 2.64-5.23a1 1 0 1 0-1.28-1.54A8.84 8.84 0 0 0 1.5 11a8.84 8.84 0 0 0 3.36 6.77a1 1 0 1 0 1.28-1.54A6.87 6.87 0 0 1 3.5 11" />
    <path fill="#000"
        d="M16.64 6.24a1 1 0 0 0-1.28 1.52A4.28 4.28 0 0 1 17 11a4.28 4.28 0 0 1-1.64 3.24A1 1 0 0 0 16 16a1 1 0 0 0 .64-.24A6.2 6.2 0 0 0 19 11a6.2 6.2 0 0 0-2.36-4.76m-7.88.12a1 1 0 0 0-1.4-.12A6.2 6.2 0 0 0 5 11a6.2 6.2 0 0 0 2.36 4.76a1 1 0 0 0 1.4-.12a1 1 0 0 0-.12-1.4A4.28 4.28 0 0 1 7 11a4.28 4.28 0 0 1 1.64-3.24a1 1 0 0 0 .12-1.4" />
    <path fill="#000"
        d="M19.14 4.23a1 1 0 1 0-1.28 1.54A6.87 6.87 0 0 1 20.5 11a6.87 6.87 0 0 1-2.64 5.23a1 1 0 0 0 1.28 1.54A8.84 8.84 0 0 0 22.5 11a8.84 8.84 0 0 0-3.36-6.77" />
</svg>
