<!--
 ~ Copyright (c) 2025, WSO2 LLC. (https://www.wso2.com) All Rights Reserved.
 ~
 ~ WSO2 LLC. licenses this file to you under the Apache License,
 ~ Version 2.0 (the "License"); you may not use this file except
 ~ in compliance with the License.
 ~ You may obtain a copy of the License at
 ~
 ~     http://www.apache.org/licenses/LICENSE-2.0
 ~
 ~ Unless required by applicable law or agreed to in writing,
 ~ software distributed under the License is distributed on an
 ~ "AS IS" BASIS, WITHOUT WARRANTIES OR CONDITIONS OF ANY
 ~ KIND, either express or implied. See the License for the
 ~ specific language governing permissions and limitations
 ~ under the License.
-->
<svg xmlns="http://www.w3.org/2000/svg" width="24" height="24" viewBox="0 0 24 24">
    <path fill="#000"
        d="M12 2C6.486 2 2 6.486 2 12s4.486 10 10 10s10-4.486 10-10S17.514 2 12 2m7.931 9h-2.764a14.7 14.7 0 0 0-1.792-6.243A8.01 8.01 0 0 1 19.931 11M12.53 4.027c1.035 1.364 2.427 3.78 2.627 6.973H9.03c.139-2.596.994-5.028 2.451-6.974c.172-.01.344-.026.519-.026c.179 0 .354.016.53.027m-3.842.7C7.704 6.618 7.136 8.762 7.03 11H4.069a8.01 8.01 0 0 1 4.619-6.273M4.069 13h2.974c.136 2.379.665 4.478 1.556 6.23A8.01 8.01 0 0 1 4.069 13m7.381 6.973C10.049 18.275 9.222 15.896 9.041 13h6.113c-.208 2.773-1.117 5.196-2.603 6.972c-.182.012-.364.028-.551.028c-.186 0-.367-.016-.55-.027m4.011-.772c.955-1.794 1.538-3.901 1.691-6.201h2.778a8 8 0 0 1-4.469 6.201" />
</svg>
