<svg xmlns="http://www.w3.org/2000/svg" width="24" height="24" viewBox="0 0 24 24">
	<g fill="none" fill-rule="evenodd">
		<path d="m12.594 23.258l-.012.002l-.071.035l-.02.004l-.014-.004l-.071-.036q-.016-.004-.024.006l-.004.01l-.017.428l.005.02l.01.013l.104.074l.015.004l.012-.004l.104-.074l.012-.016l.004-.017l-.017-.427q-.004-.016-.016-.018m.264-.113l-.014.002l-.184.093l-.01.01l-.003.011l.018.43l.005.012l.008.008l.201.092q.019.005.029-.008l.004-.014l-.034-.614q-.005-.019-.02-.022m-.715.002a.02.02 0 0 0-.027.006l-.006.014l-.034.614q.001.018.017.024l.015-.002l.201-.093l.01-.008l.003-.011l.018-.43l-.003-.012l-.01-.01z" />
		<path fill="currentColor" d="M10.5 2c.58 0 1.15.058 1.699.17a1 1 0 1 1-.398 1.96a6.5 6.5 0 1 0 5.069 7.671a1 1 0 1 1 1.96.398a8.5 8.5 0 0 1-1.457 3.303l-.197.26l3.652 3.652a1 1 0 0 1-1.32 1.498l-.094-.084l-3.652-3.652A8.5 8.5 0 1 1 10.5 2M19 1a1 1 0 0 1 .898.56l.048.117l.13.378a3 3 0 0 0 1.684 1.8l.185.07l.378.129a1 1 0 0 1 .118 1.844l-.118.048l-.378.13a3 3 0 0 0-1.8 1.684l-.07.185l-.129.378a1 1 0 0 1-1.844.117l-.048-.117l-.13-.378a3 3 0 0 0-1.684-1.8l-.185-.07l-.378-.129a1 1 0 0 1-.118-1.844l.118-.048l.378-.13a3 3 0 0 0 1.8-1.684l.07-.185l.129-.378A1 1 0 0 1 19 1m0 3.196a5 5 0 0 1-.804.804q.448.355.804.804q.355-.448.804-.804A5 5 0 0 1 19 4.196" />
	</g>
</svg>
