<!--
 ~ Copyright (c) 2025, WSO2 LLC. (https://www.wso2.com) All Rights Reserved.
 ~
 ~ WSO2 LLC. licenses this file to you under the Apache License,
 ~ Version 2.0 (the "License"); you may not use this file except
 ~ in compliance with the License.
 ~ You may obtain a copy of the License at
 ~
 ~     http://www.apache.org/licenses/LICENSE-2.0
 ~
 ~ Unless required by applicable law or agreed to in writing,
 ~ software distributed under the License is distributed on an
 ~ "AS IS" BASIS, WITHOUT WARRANTIES OR CONDITIONS OF ANY
 ~ KIND, either express or implied. See the License for the
 ~ specific language governing permissions and limitations
 ~ under the License.
-->
<svg xmlns="http://www.w3.org/2000/svg" width="24" height="24" viewBox="0 0 24 24">
    <path fill="#000"
        d="m15.5 16.9l1.4-1.4q.15-.15.15-.35t-.15-.35l-3.4-3.425q.1-.275.15-.55t.05-.625q0-1.425-1.012-2.437T10.25 6.75q-.275 0-.525.025t-.5.125Q9 7 8.95 7.25t.125.425l1.85 1.85l-1.4 1.4l-1.85-1.85Q7.5 8.9 7.25 8.95t-.35.275q-.075.25-.113.5t-.037.525q0 1.425 1.013 2.438T10.2 13.7q.325 0 .613-.05t.562-.15l3.425 3.4q.15.15.35.15t.35-.15M12 22q-2.075 0-3.9-.788t-3.175-2.137T2.788 15.9T2 12t.788-3.9t2.137-3.175T8.1 2.788T12 2t3.9.788t3.175 2.137T21.213 8.1T22 12t-.788 3.9t-2.137 3.175t-3.175 2.138T12 22m0-2q3.35 0 5.675-2.325T20 12t-2.325-5.675T12 4T6.325 6.325T4 12t2.325 5.675T12 20m0-8" />
</svg>
