<!--
 ~ Copyright (c) 2025, WSO2 LLC. (https://www.wso2.com) All Rights Reserved.
 ~
 ~ WSO2 LLC. licenses this file to you under the Apache License,
 ~ Version 2.0 (the "License"); you may not use this file except
 ~ in compliance with the License.
 ~ You may obtain a copy of the License at
 ~
 ~     http://www.apache.org/licenses/LICENSE-2.0
 ~
 ~ Unless required by applicable law or agreed to in writing,
 ~ software distributed under the License is distributed on an
 ~ "AS IS" BASIS, WITHOUT WARRANTIES OR CONDITIONS OF ANY
 ~ KIND, either express or implied. See the License for the
 ~ specific language governing permissions and limitations
 ~ under the License.
-->
<svg xmlns="http://www.w3.org/2000/svg" width="24" height="24" viewBox="0 0 24 24">
    <path fill="#000"
        d="M12 17q-1.825 0-3.187-1.137T7.1 13H3q-.425 0-.712-.288T2 12t.288-.712T3 11h4.1q.35-1.725 1.713-2.863T12 7t3.188 1.138T16.9 11H21q.425 0 .713.288T22 12t-.288.713T21 13h-4.1q-.35 1.725-1.712 2.863T12 17m0-2q1.25 0 2.125-.875T15 12t-.875-2.125T12 9t-2.125.875T9 12t.875 2.125T12 15" />
</svg>
