<!--
 ~ Copyright (c) 2025, WSO2 LLC. (https://www.wso2.com) All Rights Reserved.
 ~
 ~ WSO2 LLC. licenses this file to you under the Apache License,
 ~ Version 2.0 (the "License"); you may not use this file except
 ~ in compliance with the License.
 ~ You may obtain a copy of the License at
 ~
 ~     http://www.apache.org/licenses/LICENSE-2.0
 ~
 ~ Unless required by applicable law or agreed to in writing,
 ~ software distributed under the License is distributed on an
 ~ "AS IS" BASIS, WITHOUT WARRANTIES OR CONDITIONS OF ANY
 ~ KIND, either express or implied. See the License for the
 ~ specific language governing permissions and limitations
 ~ under the License.
-->
<svg xmlns="http://www.w3.org/2000/svg" width="24" height="24" viewBox="0 0 24 24">
    <path fill="#000"
        d="M4 22q-.425 0-.712-.288T3 21t.288-.712T4 20h1.55q-1.2-.575-1.937-1.7t-.738-2.55q0-1.975 1.388-3.363T7.625 11q.425 0 .713.288t.287.712t-.288.713t-.712.287q-1.125 0-1.937.8t-.813 1.95q0 .975.6 1.725t1.525.95V17q0-.425.288-.712T8 16t.713.288T9 17v4q0 .425-.288.713T8 22zm9-6h8v3q0 .825-.587 1.413T19 21h-6zm0-2V9h8v5zM3 7V5q0-.825.588-1.412T5 3h14q.825 0 1.413.588T21 5v2z" />
</svg>
