<!--
 ~ Copyright (c) 2025, WSO2 LLC. (https://www.wso2.com) All Rights Reserved.
 ~
 ~ WSO2 LLC. licenses this file to you under the Apache License,
 ~ Version 2.0 (the "License"); you may not use this file except
 ~ in compliance with the License.
 ~ You may obtain a copy of the License at
 ~
 ~     http://www.apache.org/licenses/LICENSE-2.0
 ~
 ~ Unless required by applicable law or agreed to in writing,
 ~ software distributed under the License is distributed on an
 ~ "AS IS" BASIS, WITHOUT WARRANTIES OR CONDITIONS OF ANY
 ~ KIND, either express or implied. See the License for the
 ~ specific language governing permissions and limitations
 ~ under the License.
-->
<svg xmlns="http://www.w3.org/2000/svg" width="24" height="24" viewBox="0 0 24 24">
    <path fill="#000"
        d="M9 13h6q.425 0 .713-.288T16 12t-.288-.712T15 11H9q-.425 0-.712.288T8 12t.288.713T9 13m0 3h6q.425 0 .713-.288T16 15t-.288-.712T15 14H9q-.425 0-.712.288T8 15t.288.713T9 16m0 3h3q.425 0 .713-.288T13 18t-.288-.712T12 17H9q-.425 0-.712.288T8 18t.288.713T9 19m-3 3q-.825 0-1.412-.587T4 20V4q0-.825.588-1.412T6 2h7.175q.4 0 .763.15t.637.425l4.85 4.85q.275.275.425.638t.15.762V20q0 .825-.587 1.413T18 22zM18 9h-3.5q-.625 0-1.062-.437T13 7.5V4H6v16h12zM6 4v5zv16z" />
</svg>
