<!--
 ~ Copyright (c) 2025, WSO2 LLC. (https://www.wso2.com) All Rights Reserved.
 ~
 ~ WSO2 LLC. licenses this file to you under the Apache License,
 ~ Version 2.0 (the "License"); you may not use this file except
 ~ in compliance with the License.
 ~ You may obtain a copy of the License at
 ~
 ~     http://www.apache.org/licenses/LICENSE-2.0
 ~
 ~ Unless required by applicable law or agreed to in writing,
 ~ software distributed under the License is distributed on an
 ~ "AS IS" BASIS, WITHOUT WARRANTIES OR CONDITIONS OF ANY
 ~ KIND, either express or implied. See the License for the
 ~ specific language governing permissions and limitations
 ~ under the License.
-->
<svg xmlns="http://www.w3.org/2000/svg" width="24" height="24" viewBox="0 0 24 24">
    <path fill="#000"
        d="M5 21q-.825 0-1.412-.587T3 19V5q0-.825.588-1.412T5 3h14q.825 0 1.413.588T21 5v14q0 .825-.587 1.413T19 21zM5 8.325h14V5H5zm0 5.35h14v-3.35H5zM5 19h14v-3.325H5zM7 7.65q-.425 0-.712-.288T6 6.65t.288-.712T7 5.65t.713.288T8 6.65t-.288.713T7 7.65M7 13q-.425 0-.712-.288T6 12t.288-.712T7 11t.713.288T8 12t-.288.713T7 13m0 5.35q-.425 0-.712-.288T6 17.35t.288-.712T7 16.35t.713.288t.287.712t-.288.713T7 18.35" />
</svg>
