<!--
 ~ Copyright (c) 2025, WSO2 LLC. (https://www.wso2.com) All Rights Reserved.
 ~
 ~ WSO2 LLC. licenses this file to you under the Apache License,
 ~ Version 2.0 (the "License"); you may not use this file except
 ~ in compliance with the License.
 ~ You may obtain a copy of the License at
 ~
 ~     http://www.apache.org/licenses/LICENSE-2.0
 ~
 ~ Unless required by applicable law or agreed to in writing,
 ~ software distributed under the License is distributed on an
 ~ "AS IS" BASIS, WITHOUT WARRANTIES OR CONDITIONS OF ANY
 ~ KIND, either express or implied. See the License for the
 ~ specific language governing permissions and limitations
 ~ under the License.
-->
<svg xmlns="http://www.w3.org/2000/svg" width="24" height="24" viewBox="0 0 24 24">
    <path fill="#000"
        d="M5 19h1.425L16.2 9.225L14.775 7.8L5 17.575zm-1 2q-.425 0-.712-.288T3 20v-2.425q0-.4.15-.763t.425-.637L16.2 3.575q.3-.275.663-.425t.762-.15t.775.15t.65.45L20.425 5q.3.275.437.65T21 6.4q0 .4-.138.763t-.437.662l-12.6 12.6q-.275.275-.638.425t-.762.15zM19 6.4L17.6 5zm-3.525 2.125l-.7-.725L16.2 9.225z" />
</svg>
