<!--
 ~ Copyright (c) 2025, WSO2 LLC. (https://www.wso2.com) All Rights Reserved.
 ~
 ~ WSO2 LLC. licenses this file to you under the Apache License,
 ~ Version 2.0 (the "License"); you may not use this file except
 ~ in compliance with the License.
 ~ You may obtain a copy of the License at
 ~
 ~     http://www.apache.org/licenses/LICENSE-2.0
 ~
 ~ Unless required by applicable law or agreed to in writing,
 ~ software distributed under the License is distributed on an
 ~ "AS IS" BASIS, WITHOUT WARRANTIES OR CONDITIONS OF ANY
 ~ KIND, either express or implied. See the License for the
 ~ specific language governing permissions and limitations
 ~ under the License.
-->
<svg xmlns="http://www.w3.org/2000/svg" width="24" height="24" viewBox="0 0 24 24">
    <path fill="#000"
        d="M6 19h3v-5q0-.425.288-.712T10 13h4q.425 0 .713.288T15 14v5h3v-9l-6-4.5L6 10zm-2 0v-9q0-.475.213-.9t.587-.7l6-4.5q.525-.4 1.2-.4t1.2.4l6 4.5q.375.275.588.7T20 10v9q0 .825-.588 1.413T18 21h-4q-.425 0-.712-.288T13 20v-5h-2v5q0 .425-.288.713T10 21H6q-.825 0-1.412-.587T4 19m8-6.75" />
</svg>
