<!--
 ~ Copyright (c) 2025, WSO2 LLC. (https://www.wso2.com) All Rights Reserved.
 ~
 ~ WSO2 LLC. licenses this file to you under the Apache License,
 ~ Version 2.0 (the "License"); you may not use this file except
 ~ in compliance with the License.
 ~ You may obtain a copy of the License at
 ~
 ~     http://www.apache.org/licenses/LICENSE-2.0
 ~
 ~ Unless required by applicable law or agreed to in writing,
 ~ software distributed under the License is distributed on an
 ~ "AS IS" BASIS, WITHOUT WARRANTIES OR CONDITIONS OF ANY
 ~ KIND, either express or implied. See the License for the
 ~ specific language governing permissions and limitations
 ~ under the License.
-->
<svg xmlns="http://www.w3.org/2000/svg" width="24" height="24">
    <path
        d="M11.586 1.819c-.499.193-.826.66-.826 1.18 0 .343.12.629.366.875.273.273.499.354 1.079.386 2.192.122 3.898.872 5.339 2.346a7.508 7.508 0 0 1 1.654 2.544c.57 1.415.69 3.151.324 4.693-.503 2.116-2.049 4.075-3.983 5.047-2.755 1.385-5.926 1.072-8.359-.825a9.12 9.12 0 0 1-1.266-1.279c-.995-1.283-1.531-2.698-1.631-4.306a7.699 7.699 0 0 1 1.272-4.775l.185-.278.021.716c.019.678.026.728.127.92.226.431.625.673 1.112.673.486 0 .885-.241 1.113-.673l.107-.203V4.14l-.107-.203a1.49 1.49 0 0 0-.541-.551C7.326 3.259 6.989 3.24 5 3.24s-2.326.019-2.572.146a1.49 1.49 0 0 0-.541.551c-.092.176-.106.25-.106.563 0 .313.014.387.106.563.128.243.376.476.628.59.152.068.286.086.755.1.314.009.57.022.57.029 0 .007-.101.154-.224.326-1.138 1.585-1.781 3.531-1.844 5.581-.055 1.815.311 3.442 1.131 5.023.64 1.235 1.611 2.427 2.657 3.263a10.21 10.21 0 0 0 6.451 2.265c.777 0 1.249-.045 1.949-.184a10.098 10.098 0 0 0 5.28-2.816c1.95-1.95 3-4.486 3-7.247 0-2.734-1.056-5.29-2.98-7.213-1.357-1.356-2.962-2.268-4.78-2.715a8.755 8.755 0 0 0-2.08-.287c-.523-.015-.692-.006-.814.041"
        fill-rule="evenodd" />
</svg>
