<!--
 ~ Copyright (c) 2025, WSO2 LLC. (https://www.wso2.com) All Rights Reserved.
 ~
 ~ WSO2 LLC. licenses this file to you under the Apache License,
 ~ Version 2.0 (the "License"); you may not use this file except
 ~ in compliance with the License.
 ~ You may obtain a copy of the License at
 ~
 ~     http://www.apache.org/licenses/LICENSE-2.0
 ~
 ~ Unless required by applicable law or agreed to in writing,
 ~ software distributed under the License is distributed on an
 ~ "AS IS" BASIS, WITHOUT WARRANTIES OR CONDITIONS OF ANY
 ~ KIND, either express or implied. See the License for the
 ~ specific language governing permissions and limitations
 ~ under the License.
-->
<svg xmlns="http://www.w3.org/2000/svg" width="24" height="24" viewBox="0 0 16 16">
    <path fill="#000" fill-rule="evenodd"
        d="M13.25 12a.75.75 0 1 0 0 1.5a.75.75 0 0 0 0-1.5m-.75-1.372a2.251 2.251 0 1 0 1.5 0v-.378a3 3 0 0 0-3-3H8.75V5.372a2.25 2.25 0 1 0-1.5 0V7.25H5a3 3 0 0 0-3 3v.378a2.251 2.251 0 1 0 1.5 0v-.378A1.5 1.5 0 0 1 5 8.75h2.25v1.878a2.251 2.251 0 1 0 1.5 0V8.75H11a1.5 1.5 0 0 1 1.5 1.5zM2.75 12a.75.75 0 1 0 0 1.5a.75.75 0 0 0 0-1.5m4.5.75a.75.75 0 1 1 1.5 0a.75.75 0 0 1-1.5 0M8 2.5A.75.75 0 1 0 8 4a.75.75 0 0 0 0-1.5"
        clip-rule="evenodd" />
</svg>
