<svg xmlns="http://www.w3.org/2000/svg" width="24" height="24" viewBox="0 0 24 24">
	<path fill="currentColor" d="M16.778 1.844v1.919q-.569-.026-1.138-.032q-.708-.008-1.415.037c-1.93.126-4.023.728-6.149 2.237c-2.911 2.066-2.731 1.95-4.14 2.75c-.396.223-1.342.574-2.185.798c-.841.225-1.753.333-1.751.333v4.229s.768.108 1.61.333c.842.224 1.789.575 2.185.799c1.41.798 1.228.683 4.14 2.75c2.126 1.509 4.22 2.11 6.148 2.236c.88.058 1.716.041 2.555.005v1.918l7.222-4.168l-7.222-4.17v2.176c-.86.038-1.611.065-2.278.021c-1.364-.09-2.417-.357-3.979-1.465c-2.244-1.593-2.866-2.027-3.68-2.508c.889-.518 1.449-.906 3.822-2.59c1.56-1.109 2.614-1.377 3.978-1.466c.667-.044 1.418-.017 2.278.02v2.176L24 6.014Z" stroke-width="0.5" stroke="currentColor" />
</svg>