<!--
 ~ Copyright (c) 2025, WSO2 LLC. (https://www.wso2.com) All Rights Reserved.
 ~
 ~ WSO2 LLC. licenses this file to you under the Apache License,
 ~ Version 2.0 (the "License"); you may not use this file except
 ~ in compliance with the License.
 ~ You may obtain a copy of the License at
 ~
 ~     http://www.apache.org/licenses/LICENSE-2.0
 ~
 ~ Unless required by applicable law or agreed to in writing,
 ~ software distributed under the License is distributed on an
 ~ "AS IS" BASIS, WITHOUT WARRANTIES OR CONDITIONS OF ANY
 ~ KIND, either express or implied. See the License for the
 ~ specific language governing permissions and limitations
 ~ under the License.
-->
<svg xmlns="http://www.w3.org/2000/svg" width="24" height="24" viewBox="0 0 24 24">
    <path fill="currentColor"
        d="M5 21q-.825 0-1.412-.587T3 19V5q0-.825.588-1.412T5 3h14q.825 0 1.413.588T21 5v14q0 .825-.587 1.413T19 21h-3q-.425 0-.712-.288T15 20t.288-.712T16 19h3V7H5v12h3q.425 0 .713.288T9 20t-.288.713T8 21zm6-1v-5.15l-.875.875q-.3.3-.712.288T8.7 15.7q-.275-.3-.287-.7t.287-.7l2.6-2.6q.15-.15.325-.212t.375-.063t.375.063t.325.212l2.6 2.6q.3.3.287.7t-.287.7q-.3.3-.712.313t-.713-.288L13 14.85V20q0 .425-.288.713T12 21t-.712-.288T11 20" />
</svg>
