<!--
 ~ Copyright (c) 2025, WSO2 LLC. (https://www.wso2.com) All Rights Reserved.
 ~
 ~ WSO2 LLC. licenses this file to you under the Apache License,
 ~ Version 2.0 (the "License"); you may not use this file except
 ~ in compliance with the License.
 ~ You may obtain a copy of the License at
 ~
 ~     http://www.apache.org/licenses/LICENSE-2.0
 ~
 ~ Unless required by applicable law or agreed to in writing,
 ~ software distributed under the License is distributed on an
 ~ "AS IS" BASIS, WITHOUT WARRANTIES OR CONDITIONS OF ANY
 ~ KIND, either express or implied. See the License for the
 ~ specific language governing permissions and limitations
 ~ under the License.
-->
<svg xmlns="http://www.w3.org/2000/svg" width="24" height="24" viewBox="0 0 24 24">
    <path fill="#000" fill-rule="evenodd"
        d="M8 8.83a3.001 3.001 0 1 0-2 0v6.34a3.001 3.001 0 1 0 2 0zM7 5a1 1 0 1 0 0 2a1 1 0 0 0 0-2m0 12a1 1 0 1 0 0 2a1 1 0 0 0 0-2m9-1.83V8.83a3.001 3.001 0 1 1 2 0v6.34a3.001 3.001 0 1 1-2 0M16 18a1 1 0 1 1 2 0a1 1 0 0 1-2 0m1-13a1 1 0 1 0 0 2a1 1 0 0 0 0-2"
        clip-rule="evenodd" />
</svg>
