<!--
 ~ Copyright (c) 2025, WSO2 LLC. (https://www.wso2.com) All Rights Reserved.
 ~
 ~ WSO2 LLC. licenses this file to you under the Apache License,
 ~ Version 2.0 (the "License"); you may not use this file except
 ~ in compliance with the License.
 ~ You may obtain a copy of the License at
 ~
 ~     http://www.apache.org/licenses/LICENSE-2.0
 ~
 ~ Unless required by applicable law or agreed to in writing,
 ~ software distributed under the License is distributed on an
 ~ "AS IS" BASIS, WITHOUT WARRANTIES OR CONDITIONS OF ANY
 ~ KIND, either express or implied. See the License for the
 ~ specific language governing permissions and limitations
 ~ under the License.
-->
<svg xmlns="http://www.w3.org/2000/svg" width="24" height="24" viewBox="0 0 24 24">
    <path fill="#000"
        d="M12 20q-3.35 0-5.675-2.325T4 12t2.325-5.675T12 4q1.725 0 3.3.712T18 6.75V5q0-.425.288-.712T19 4t.713.288T20 5v5q0 .425-.288.713T19 11h-5q-.425 0-.712-.288T13 10t.288-.712T14 9h3.2q-.8-1.4-2.187-2.2T12 6Q9.5 6 7.75 7.75T6 12t1.75 4.25T12 18q1.7 0 3.113-.862t2.187-2.313q.2-.35.563-.487t.737-.013q.4.125.575.525t-.025.75q-1.025 2-2.925 3.2T12 20" />
</svg>
