<!--
 ~ Copyright (c) 2025, WSO2 LLC. (https://www.wso2.com) All Rights Reserved.
 ~
 ~ WSO2 LLC. licenses this file to you under the Apache License,
 ~ Version 2.0 (the "License"); you may not use this file except
 ~ in compliance with the License.
 ~ You may obtain a copy of the License at
 ~
 ~     http://www.apache.org/licenses/LICENSE-2.0
 ~
 ~ Unless required by applicable law or agreed to in writing,
 ~ software distributed under the License is distributed on an
 ~ "AS IS" BASIS, WITHOUT WARRANTIES OR CONDITIONS OF ANY
 ~ KIND, either express or implied. See the License for the
 ~ specific language governing permissions and limitations
 ~ under the License.
-->
<svg xmlns="http://www.w3.org/2000/svg" width="24" height="24" viewBox="0 0 24 24">
    <path fill="#000" d="M16.2 10H9.9q-1.575 0-2.738 1T6 13.5T7.163 16T9.9 17H16q.425 0 .713.288T17 18t-.288.713T16 19H9.9q-2.425 0-4.163-1.575T4 13.5t1.738-3.925T9.9 8h6.3l-1.9-1.9q-.275-.275-.275-.7t.275-.7t.7-.275t.7.275l3.6 3.6q.15.15.213.325t.062.375t-.062.375t-.213.325l-3.6 3.6q-.275.275-.7.275t-.7-.275t-.275-.7t.275-.7z"/>
</svg>
