<!--
 ~ Copyright (c) 2025, WSO2 LLC. (https://www.wso2.com) All Rights Reserved.
 ~
 ~ WSO2 LLC. licenses this file to you under the Apache License,
 ~ Version 2.0 (the "License"); you may not use this file except
 ~ in compliance with the License.
 ~ You may obtain a copy of the License at
 ~
 ~     http://www.apache.org/licenses/LICENSE-2.0
 ~
 ~ Unless required by applicable law or agreed to in writing,
 ~ software distributed under the License is distributed on an
 ~ "AS IS" BASIS, WITHOUT WARRANTIES OR CONDITIONS OF ANY
 ~ KIND, either express or implied. See the License for the
 ~ specific language governing permissions and limitations
 ~ under the License.
-->
<svg xmlns="http://www.w3.org/2000/svg" width="24" height="24" viewBox="0 0 24 24">
    <path fill="#000"
        d="M19.63 3.65a1 1 0 0 0-.84-.2a8 8 0 0 1-6.22-1.27a1 1 0 0 0-1.14 0a8 8 0 0 1-6.22 1.27a1 1 0 0 0-.84.2a1 1 0 0 0-.37.78v7.45a9 9 0 0 0 3.77 7.33l3.65 2.6a1 1 0 0 0 1.16 0l3.65-2.6A9 9 0 0 0 20 11.88V4.43a1 1 0 0 0-.37-.78M18 11.88a7 7 0 0 1-2.93 5.7L12 19.77l-3.07-2.19A7 7 0 0 1 6 11.88v-6.3a10 10 0 0 0 6-1.39a10 10 0 0 0 6 1.39Z" />
</svg>
