<!--
 ~ Copyright (c) 2025, WSO2 LLC. (https://www.wso2.com) All Rights Reserved.
 ~
 ~ WSO2 LLC. licenses this file to you under the Apache License,
 ~ Version 2.0 (the "License"); you may not use this file except
 ~ in compliance with the License.
 ~ You may obtain a copy of the License at
 ~
 ~     http://www.apache.org/licenses/LICENSE-2.0
 ~
 ~ Unless required by applicable law or agreed to in writing,
 ~ software distributed under the License is distributed on an
 ~ "AS IS" BASIS, WITHOUT WARRANTIES OR CONDITIONS OF ANY
 ~ KIND, either express or implied. See the License for the
 ~ specific language governing permissions and limitations
 ~ under the License.
-->
<svg xmlns="http://www.w3.org/2000/svg" width="24" height="24" viewBox="0 0 24 24">
    <path fill="#000"
        d="M6 7.4V9q0 .425-.288.713T5 10t-.712-.288T4 9V5q0-.425.288-.712T5 4h4q.425 0 .713.288T10 5t-.288.713T9 6H7.4l5.025 5.025q.275.275.425.638t.15.762V19q0 .425-.287.713T12 20t-.712-.288T11 19v-6.6zm12 0l-2.45 2.475q-.3.3-.712.3t-.713-.3t-.3-.725t.3-.725L16.6 6H15q-.425 0-.712-.288T14 5t.288-.712T15 4h4q.425 0 .713.288T20 5v4q0 .425-.288.713T19 10t-.712-.288T18 9z" />
</svg>
