<?xml version="1.0" encoding="UTF-8"?>
<svg version="1.1" xmlns="http://www.w3.org/2000/svg" width="1800" height="1800" viewBox="0 0 1800 1800">
<g transform="translate(900, 900)">
<g transform="translate(-900, -250)">
<path d="M0 0 C0.79912811 -0.00067474 1.59825623 -0.00134949 2.42160034 -0.00204468 C36.6019933 0.04367103 76.40389152 6.10617789 101.8359375 31.18359375 C120.44122593 51.3731753 122.01476826 79.08044023 122.03271484 105.13452148 C122.03739616 106.68333578 122.04254183 108.23214873 122.04811096 109.78096008 C122.05929219 113.08799036 122.06777311 116.39501216 122.07423019 119.70205498 C122.08500342 124.93454626 122.10526663 130.16697507 122.12734985 135.39942932 C122.18898096 150.26845471 122.24338135 165.137473 122.27636719 180.0065918 C122.29471129 188.24011593 122.32362939 196.47353187 122.3643719 204.70697647 C122.38541555 209.0553492 122.40089574 213.40358592 122.40317917 217.75201225 C122.40532609 221.83404534 122.42119956 225.91579351 122.44756889 229.99773979 C122.45475696 231.49328032 122.45686523 232.98885539 122.45346642 234.48440933 C122.44956257 236.52884637 122.46580693 238.57329206 122.48300171 240.61766052 C122.48796693 242.33175692 122.48796693 242.33175692 122.49303246 244.08048153 C123.02721665 248.51307455 124.63811829 251.82987656 127.5625 255.1875 C131.18636119 256.8525173 134.22113099 256.54447715 137.875 255.25 C141.09742078 253.15667549 144.00193684 250.79718331 146.875 248.25 C149.73698697 250.96266591 151.98432246 253.69168017 154.125 257 C154.64578125 257.79921875 155.1665625 258.5984375 155.703125 259.421875 C156.28320312 260.32679688 156.28320312 260.32679688 156.875 261.25 C150.75157663 275.51627358 130.57300251 286.71188285 116.875 292.25 C99.16940457 298.29104611 77.93815442 299.99027615 60.58984375 291.8515625 C47.26504214 283.99088817 41.7327283 272.72782737 37.875 258.25 C34.95275678 257.91849995 34.95275678 257.91849995 33.54296875 259.4296875 C33.05441406 259.98914063 32.56585937 260.54859375 32.0625 261.125 C9.64708226 284.38451297 -25.54360609 296.46013764 -57.19140625 297.30517578 C-76.87420066 297.41949504 -96.87729112 289.32792525 -111.01171875 275.62109375 C-125.70277978 259.13777759 -126.26338802 239.23704164 -125.125 218.25 C-122.97688347 199.2048431 -110.83761373 183.22680908 -96.27734375 171.5859375 C-91.10651695 167.75427154 -85.72368037 164.41313109 -80.125 161.25 C-79.526875 160.90646484 -78.92875 160.56292969 -78.3125 160.20898438 C-49.24617667 143.64723556 -16.75253602 133.18850966 15 123.0625 C15.91274689 122.77006409 16.82549377 122.47762817 17.76589966 122.17633057 C20.3651927 121.34614146 22.96710505 120.52485271 25.5703125 119.70703125 C26.35124771 119.45761276 27.13218292 119.20819427 27.93678284 118.95121765 C31.43997814 117.86283755 34.17149014 117.25 37.875 117.25 C37.80718474 110.15535924 37.71707876 103.06123484 37.61254883 95.96704102 C37.57960062 93.56117927 37.55147853 91.15524581 37.52856445 88.74926758 C37.76968511 59.31491302 37.76968511 59.31491302 25.5 33.3125 C11.53322243 22.33860334 -5.23941181 20.13634309 -22.609375 21.70703125 C-32.10559089 23.17366904 -40.08563314 26.21063314 -46.9375 33.0625 C-49.46225593 36.74143007 -50.125 38.80078963 -50.125 43.25 C-48.43774639 49.51694198 -44.42162514 53.57506671 -40.28515625 58.46484375 C-33.46146517 67.26283966 -32.47399661 76.4040378 -33.125 87.25 C-34.45741101 96.57687708 -38.26305995 103.36950748 -45.640625 109.2578125 C-56.79941228 116.8776701 -68.85141717 119.06298521 -82.1796875 116.7109375 C-93.30983054 113.90527818 -103.74213574 108.56478031 -109.8359375 98.39453125 C-116.18205331 84.80357225 -115.80897253 68.86921139 -111.4453125 54.6796875 C-103.74093363 34.66653767 -87.43087279 21.93036529 -68.5234375 13.1328125 C-54.90936972 7.13265356 -40.86088756 3.18893257 -26.125 1.25 C-24.18753906 0.97542969 -24.18753906 0.97542969 -22.2109375 0.6953125 C-14.84179896 -0.09154564 -7.40314366 0.0056137 0 0 Z M-18.375 168 C-31.54430914 181.83893503 -36.62113284 198.06378728 -36.33984375 216.91015625 C-35.96435853 227.58466451 -32.78597026 236.12293272 -25.625 244 C-18.40009776 250.50241202 -13.20248623 252.75681114 -3.4140625 252.5625 C12.74896406 251.02682052 23.42833453 241.65477237 34.48698425 230.65097046 C37.64524191 226.80023789 37.55082009 223.31340893 37.44262695 218.49072266 C37.44335709 217.63153229 37.44408722 216.77234192 37.44483948 215.88711548 C37.44137066 213.06211043 37.40254386 210.2387776 37.36328125 207.4140625 C37.35395059 205.44966533 37.34683567 203.48525649 37.34184265 201.52084351 C37.3227928 196.36175155 37.27370909 191.20336842 37.21832275 186.04455566 C37.16708698 180.77589506 37.14431935 175.50711942 37.11914062 170.23828125 C37.06558861 159.9085435 36.98029998 149.5793308 36.875 139.25 C17.31074033 139.25 -4.62647457 155.30905345 -18.375 168 Z " fill="#00C895" transform="translate(852.125,162.75)"/>
<path d="M0 0 C15.0988696 13.86583403 26.72235964 30.05263559 35.0625 48.75 C35.60519531 49.93722656 36.14789062 51.12445313 36.70703125 52.34765625 C53.4032044 91.19267683 52.60210605 139.39758721 37.24609375 178.5078125 C23.80286807 210.98468685 -1.42758817 240.4390806 -33.9375 254.75 C-70.01525884 269.27996891 -110.1993786 268.40109769 -146.0625 254 C-157.4607898 248.93697833 -167.42945753 241.77027323 -176.9375 233.75 C-177.57171875 233.23824219 -178.2059375 232.72648437 -178.859375 232.19921875 C-183.41299931 228.46162004 -187.19755822 224.29187862 -190.9375 219.75 C-192.19240234 218.25146484 -192.19240234 218.25146484 -193.47265625 216.72265625 C-217.13867594 187.94524904 -227.435416 153.04413864 -227.25 116.0625 C-227.24850952 115.32220551 -227.24701904 114.58191101 -227.2454834 113.81918335 C-227.20259882 101.92879308 -226.52744807 90.38403566 -223.9375 78.75 C-223.7206958 77.75395752 -223.7206958 77.75395752 -223.49951172 76.73779297 C-217.16154796 48.55736716 -203.2198039 24.14281645 -182.9375 3.75 C-182.20660156 3.01305908 -182.20660156 3.01305908 -181.4609375 2.26123047 C-174.02344938 -5.13399919 -166.03569697 -11.04554326 -156.9375 -16.25 C-156.32422852 -16.60191406 -155.71095703 -16.95382813 -155.07910156 -17.31640625 C-140.90267732 -25.28283646 -125.11000581 -30.40239919 -108.9375 -32.25 C-108.08929688 -32.35957031 -107.24109375 -32.46914062 -106.3671875 -32.58203125 C-66.93026463 -36.99661217 -29.87247619 -26.15004925 0 0 Z M-117.5 0.25 C-151.52451606 41.18817344 -139.12197517 132.10479146 -134.62890625 181.11621094 C-132.56887503 201.46855646 -128.49215449 222.19131209 -112.9375 236.75 C-105.05269797 242.91612625 -95.73216057 245.21036596 -85.82421875 244.5390625 C-76.08211246 243.32559215 -67.36813774 240.40140985 -60.59375 233.00390625 C-28.00369169 188.65375614 -38.47313666 96.18579876 -45.62695312 44.59399414 C-48.5264849 25.65423861 -52.05272079 7.11592419 -66.9375 -6.25 C-69.50750027 -8.00140759 -72.01658297 -9.20333806 -74.9375 -10.25 C-75.96875 -10.6625 -77 -11.075 -78.0625 -11.5 C-93.92036787 -14.56926475 -106.38943664 -11.28029575 -117.5 0.25 Z " fill="#00C895" transform="translate(496.9375,195.25)"/>
<path d="M0 0 C0.82886719 0.75796875 1.65773438 1.5159375 2.51171875 2.296875 C3.35089844 3.05484375 4.19007813 3.8128125 5.0546875 4.59375 C29.11304881 27.4212184 37.09458788 58.4744058 41.51171875 90.296875 C41.61919434 91.02583984 41.72666992 91.75480469 41.83740234 92.50585938 C42.7677427 99.55241634 42.51171875 105.99945865 42.51171875 113.296875 C-8.63828125 113.296875 -59.78828125 113.296875 -112.48828125 113.296875 C-105.80212582 168.39852544 -105.80212582 168.39852544 -75.21875 213.22265625 C-60.46860251 224.42770391 -42.94881623 225.99615446 -25.09765625 223.8984375 C-12.22945656 221.1911933 -0.16038561 213.99682577 9.51171875 205.296875 C10.34058594 204.575 11.16945313 203.853125 12.0234375 203.109375 C21.91386373 195.13692955 21.91386373 195.13692955 29.51171875 185.296875 C33.86035527 185.86132325 36.6899953 187.45115464 40.32421875 189.859375 C41.30003906 190.50003906 42.27585937 191.14070312 43.28125 191.80078125 C44.01730469 192.29449219 44.75335937 192.78820312 45.51171875 193.296875 C34.48162692 222.90396359 3.80368337 248.63441826 -24.08959961 261.61645508 C-31.03668155 264.70186235 -38.04639471 266.70938453 -45.48828125 268.296875 C-46.92300781 268.61591797 -46.92300781 268.61591797 -48.38671875 268.94140625 C-80.55926328 275.20468873 -113.28868506 269.30976955 -140.74707031 251.40112305 C-170.95299857 230.85768459 -188.70863371 203.74810295 -195.97705078 167.88525391 C-198.77795893 153.149516 -199.72633275 138.53171026 -199.73828125 123.546875 C-199.73895599 122.78019501 -199.73963074 122.01351501 -199.74032593 121.22360229 C-199.68816449 83.67175295 -191.91615072 46.17629377 -166.48828125 17.296875 C-165.77929688 16.45511719 -165.0703125 15.61335938 -164.33984375 14.74609375 C-147.23673826 -5.10462255 -123.93257581 -18.11436714 -98.48828125 -23.703125 C-97.04582031 -24.04150391 -97.04582031 -24.04150391 -95.57421875 -24.38671875 C-62.17137798 -30.91422806 -25.82171456 -22.38653878 0 0 Z M-95.6484375 3.01953125 C-107.88133632 18.16131472 -110.32927891 39.65278006 -112.48828125 58.296875 C-112.62105469 59.39515625 -112.75382812 60.4934375 -112.890625 61.625 C-113.83372364 70.87511818 -113.48828125 79.92876603 -113.48828125 89.296875 C-87.08828125 89.296875 -60.68828125 89.296875 -33.48828125 89.296875 C-33.28618515 68.11591308 -33.28618515 68.11591308 -34.73828125 47.171875 C-34.87250488 45.96813232 -35.00672852 44.76438965 -35.14501953 43.52416992 C-37.87006727 20.02838266 -37.87006727 20.02838266 -50.58984375 0.765625 C-63.63920841 -9.33017976 -83.70359146 -8.53448138 -95.6484375 3.01953125 Z " fill="#00C895" transform="translate(1479.48828125,188.703125)"/>
<path d="M0 0 C38.28 0 76.56 0 116 0 C116.01458252 11.0442041 116.02916504 22.0884082 116.04418945 33.46728516 C116.09297367 68.82687661 116.15639022 104.18642832 116.22898628 139.54597858 C116.2402541 145.04074331 116.25139261 150.53550829 116.26245117 156.03027344 C116.26465486 157.12415671 116.26685854 158.21803999 116.269129 159.34507124 C116.30447659 177.04418864 116.32935505 194.743306 116.35034702 212.44244559 C116.37212929 230.61088077 116.40520276 248.77927024 116.44870156 266.94766653 C116.47517645 278.15351884 116.49290248 289.35931423 116.49934604 300.56519626 C116.50461266 308.25526551 116.52087235 315.94526322 116.54566566 323.63529409 C116.55963702 328.06834664 116.56886784 332.50127123 116.56500816 336.93434715 C116.5615749 341.00118508 116.57209403 345.06775064 116.59323552 349.13453285 C116.59846411 350.5977508 116.59878017 352.06099732 116.59339563 353.5242147 C116.55714882 364.5010123 116.61908771 376.6185095 123 386 C129.10603622 391.66539443 138.29671194 393.59272248 146 396 C146 401.28 146 406.56 146 412 C97.82 412 49.64 412 0 412 C0 406.72 0 401.44 0 396 C2.31 395.29875 4.62 394.5975 7 393.875 C14.88643605 391.31125058 21.40379671 388.53051434 25.4375 380.875 C27.4834549 376.30600654 28.12525209 372.31140874 28.13142776 367.30392265 C28.13526891 366.13518793 28.13911005 364.96645321 28.1430676 363.76230228 C28.14220112 362.47730716 28.14133463 361.19231205 28.14044189 359.86837769 C28.14302577 358.49024342 28.14603899 357.11210991 28.1494453 355.73397744 C28.1575161 351.94278998 28.15930491 348.15162146 28.16004276 344.36042643 C28.16189321 340.27300922 28.16944057 336.18560184 28.17617798 332.09819031 C28.18976302 323.15795956 28.19578646 314.2177333 28.20018864 305.27749395 C28.20295112 299.69462966 28.20718852 294.11176709 28.21169281 288.52890396 C28.22388635 273.07055965 28.23418507 257.61221673 28.2375679 242.15386772 C28.23778747 241.16437406 28.23800703 240.17488039 28.23823325 239.15540207 C28.23845153 238.16354149 28.23866981 237.17168091 28.2388947 236.14976394 C28.23933817 234.13988169 28.23978473 232.12999944 28.24023438 230.12011719 C28.2404558 229.12314635 28.24067723 228.12617551 28.24090537 227.09899344 C28.24485224 210.94936617 28.26230248 194.79978407 28.2855939 178.65017425 C28.30931573 162.06819556 28.32177015 145.48623952 28.32293582 128.90424359 C28.32385218 119.59469528 28.32959461 110.28520578 28.34775543 100.97567368 C28.36316773 93.04712114 28.36827026 85.11864559 28.36001733 77.19008093 C28.35611465 73.14632417 28.35702165 69.10272238 28.37107468 65.05898476 C28.38383671 61.35275035 28.38259605 57.646787 28.37048396 53.94055285 C28.3676099 51.97374375 28.37944536 50.00692987 28.39190602 48.04015815 C28.34631333 39.84586273 28.13717421 31.6198164 22.5625 25.1875 C15.93500281 20.51511448 7.68271278 18.1950608 0 16 C0 10.72 0 5.44 0 0 Z " fill="#00C895" transform="translate(561,39)"/>
<path d="M0 0 C10.77089077 10.38735757 17.87424454 23.44231494 18.29248047 38.63256836 C18.41411086 51.11748333 15.11574666 61.56166588 6.33984375 70.8125 C-2.87402814 79.20782746 -13.32229259 81.53017185 -25.53515625 81.30859375 C-35.76530437 80.58198797 -44.27971876 76.28593169 -51.3125 68.8125 C-57.51407934 61.04329921 -59.17218377 51.75050687 -59.02734375 42.046875 C-59.01468997 40.69922139 -59.00232957 39.35156499 -58.99023438 38.00390625 C-58.96555972 35.91315688 -58.93766171 33.82255908 -58.90405273 31.73193359 C-58.19867216 15.35109116 -58.19867216 15.35109116 -65 1.0625 C-74.20098434 -4.93137305 -82.307363 -5.4989248 -93 -3.9375 C-102.99102152 -1.56893886 -110.77189951 5.12796799 -116.25 13.6875 C-138.73814805 54.98967614 -138.58144081 112.38509351 -125.734375 156.64501953 C-117.99583123 182.11944119 -105.68290641 208.12615659 -81.58203125 221.75 C-64.31235712 230.52853329 -43.69677355 231.05431317 -25.3125 225.25 C-23.52716153 224.5571066 -21.75463851 223.82981898 -20 223.0625 C-18.73542969 222.54042969 -18.73542969 222.54042969 -17.4453125 222.0078125 C-4.88082858 216.3322668 4.5426804 205.79045831 14 196.0625 C17.34820898 197.52875856 19.69266359 199.39908447 22.3125 201.9375 C23.03050781 202.61554688 23.74851562 203.29359375 24.48828125 203.9921875 C26 206.0625 26 206.0625 25.97265625 208.0078125 C13.61036411 234.12253404 -19.6539239 256.1680996 -45.82666016 265.73876953 C-69.70457447 273.86841976 -96.47527586 274.99656043 -121 269.0625 C-121.70624512 268.89621094 -122.41249023 268.72992188 -123.14013672 268.55859375 C-156.49401495 260.4473151 -182.94988783 237.66146166 -201 209.0625 C-204.03161747 203.89792744 -206.6111979 198.55032552 -209 193.0625 C-209.41306396 192.11455566 -209.41306396 192.11455566 -209.83447266 191.14746094 C-226.09778876 152.89582777 -226.69273073 105.62918507 -211.8125 66.8125 C-203.53679525 46.36191624 -192.25157938 28.90241924 -177 13.0625 C-175.94425781 11.89460938 -175.94425781 11.89460938 -174.8671875 10.703125 C-133.11685967 -34.06338621 -46.39135658 -40.37062041 0 0 Z " fill="#00C895" transform="translate(1240,187.9375)"/>
<path d="M0 0 C13.32404864 4.14525643 13.32404864 4.14525643 26.54174805 1.78125 C27.41925764 0.26429335 28.24820411 -1.28123005 29.04174805 -2.84375 C30.77424805 -5.009375 30.77424805 -5.009375 32.54174805 -7.21875 C37.49174805 -7.21875 42.44174805 -7.21875 47.54174805 -7.21875 C47.54174805 22.15125 47.54174805 51.52125 47.54174805 81.78125 C41.93174805 81.78125 36.32174805 81.78125 30.54174805 81.78125 C29.92299805 79.98494141 29.92299805 79.98494141 29.29174805 78.15234375 C24.07054842 63.30403051 18.25582387 49.58054529 7.54174805 37.78125 C6.38352539 36.50121094 6.38352539 36.50121094 5.2019043 35.1953125 C-6.4398382 22.94665452 -21.41422304 14.9559896 -38.45825195 13.78125 C-49.83554479 13.58686409 -60.35503374 15.10437031 -69.83325195 21.96875 C-76.78195743 29.41379158 -80.61616377 38.16484283 -81.89575195 48.21875 C-80.43951927 60.07664467 -74.13005611 69.43922892 -64.97924805 76.89331055 C-50.6268358 87.64163554 -33.62610985 94.68638994 -17.56079102 102.4128418 C13.73980069 117.49344069 44.30706715 132.44517039 57.41674805 166.84375 C65.14270881 190.25575232 62.50598169 215.0235911 51.97924805 237.05078125 C47.94092571 244.93111858 43.05452746 251.86985803 37.54174805 258.78125 C36.80698242 259.76544922 36.80698242 259.76544922 36.05737305 260.76953125 C23.93690924 276.27659523 2.87302243 284.64745713 -16.0637207 287.40234375 C-46.07815506 290.75263159 -72.23603422 284.66003838 -100.49975586 274.67749023 C-102.12083252 274.11396851 -102.12083252 274.11396851 -103.7746582 273.5390625 C-104.72800049 273.2002002 -105.68134277 272.86133789 -106.66357422 272.51220703 C-111.06871202 271.36002894 -114.30113561 271.25090501 -118.45825195 273.15625 C-122.58759585 276.76942591 -124.82303997 281.02675609 -127.45825195 285.78125 C-128.11825195 286.77125 -128.77825195 287.76125 -129.45825195 288.78125 C-134.73825195 288.78125 -140.01825195 288.78125 -145.45825195 288.78125 C-145.45825195 255.12125 -145.45825195 221.46125 -145.45825195 186.78125 C-139.18825195 186.78125 -132.91825195 186.78125 -126.45825195 186.78125 C-125.75700195 189.606875 -125.05575195 192.4325 -124.33325195 195.34375 C-118.24541303 218.85833102 -107.76453746 239.75320281 -86.45825195 252.78125 C-72.74545135 260.75095574 -59.64139735 265.07549622 -43.70825195 265.21875 C-42.76199951 265.2290625 -41.81574707 265.239375 -40.84082031 265.25 C-29.66931067 265.10995496 -18.23237918 262.34331303 -9.77075195 254.71875 C-2.20527953 246.70315794 -0.11672844 236.56206872 -0.24731445 225.90625 C-0.95845506 215.37083357 -5.742771 206.97112465 -13.45043945 199.8984375 C-18.52553046 195.48295468 -23.95735006 192.51218918 -29.95825195 189.53125 C-31.09319092 188.95334717 -32.22812988 188.37544434 -33.39746094 187.7800293 C-40.78905599 184.03012067 -48.24890088 180.42095079 -55.7121582 176.81640625 C-56.60240692 176.3855069 -57.49265564 175.95460754 -58.40988159 175.51065063 C-62.82173357 173.37597962 -67.23792737 171.25175064 -71.6652832 169.14941406 C-86.83321381 161.89048764 -101.74292754 153.90995221 -114.45825195 142.78125 C-115.28454102 142.09804688 -116.11083008 141.41484375 -116.9621582 140.7109375 C-132.66469256 127.33381663 -142.04866909 109.22043097 -144.45825195 88.78125 C-145.43917553 71.90860694 -144.00167254 56.14668342 -136.45825195 40.78125 C-136.00450195 39.84667969 -135.55075195 38.91210938 -135.08325195 37.94921875 C-127.02321122 22.28908526 -114.86579509 10.17000978 -99.45825195 1.78125 C-98.57524414 1.29785156 -97.69223633 0.81445312 -96.7824707 0.31640625 C-66.59446915 -14.75469012 -30.96954945 -8.72583375 0 0 Z " fill="#00C895" transform="translate(189.458251953125,171.21875)"/>
<path d="M0 0 C0.59941406 0.5259375 1.19882813 1.051875 1.81640625 1.59375 C19.50251246 17.67948929 28.38305908 43.48043938 29.89794922 66.68115234 C31.05201125 92.90431308 22.78111066 117.82806697 6 138 C5.34386719 138.80308594 4.68773437 139.60617187 4.01171875 140.43359375 C-9.8371727 156.66236783 -28.49258471 166.80769698 -49 172 C-49.94359375 172.24492187 -50.8871875 172.48984375 -51.859375 172.7421875 C-77.20259586 178.08916762 -105.21485966 172.83388734 -127 159 C-151.43141587 142.71238942 -166.88102174 119.6539251 -173 91 C-177.79518983 64.40268042 -171.81563935 36.51182904 -156.75683594 14.15429688 C-139.75685583 -9.80196748 -115.76649709 -23.78039095 -87 -29 C-54.8771662 -34.16548081 -23.02316306 -22.31539855 0 0 Z " fill="#00C895" transform="translate(1726,286)"/>
</g>
</g>
</svg>
