<!--
 ~ Copyright (c) 2025, WSO2 LLC. (https://www.wso2.com) All Rights Reserved.
 ~
 ~ WSO2 LLC. licenses this file to you under the Apache License,
 ~ Version 2.0 (the "License"); you may not use this file except
 ~ in compliance with the License.
 ~ You may obtain a copy of the License at
 ~
 ~     http://www.apache.org/licenses/LICENSE-2.0
 ~
 ~ Unless required by applicable law or agreed to in writing,
 ~ software distributed under the License is distributed on an
 ~ "AS IS" BASIS, WITHOUT WARRANTIES OR CONDITIONS OF ANY
 ~ KIND, either express or implied. See the License for the
 ~ specific language governing permissions and limitations
 ~ under the License.
-->
<svg xmlns="http://www.w3.org/2000/svg" width="24" height="24" viewBox="0 0 24 24">
    <path fill="#000"
        d="M12 21q-1.875 0-3.512-.712t-2.85-1.925t-1.925-2.85T3 12t.713-3.512t1.924-2.85t2.85-1.925T12 3q2.05 0 3.888.875T19 6.35V5q0-.425.288-.712T20 4t.713.288T21 5v4q0 .425-.288.713T20 10h-4q-.425 0-.712-.288T15 9t.288-.712T16 8h1.75q-1.025-1.4-2.525-2.2T12 5Q9.075 5 7.038 7.038T5 12t2.038 4.963T12 19q2.375 0 4.25-1.425t2.475-3.675q.125-.4.45-.6t.725-.15q.425.05.675.362t.15.688q-.725 2.975-3.15 4.888T12 21m1-9.4l2.5 2.5q.275.275.275.7t-.275.7t-.7.275t-.7-.275l-2.8-2.8q-.15-.15-.225-.337T11 11.975V8q0-.425.288-.712T12 7t.713.288T13 8z" />
</svg>
