<!--
 ~ Copyright (c) 2025, WSO2 LLC. (https://www.wso2.com) All Rights Reserved.
 ~
 ~ WSO2 LLC. licenses this file to you under the Apache License,
 ~ Version 2.0 (the "License"); you may not use this file except
 ~ in compliance with the License.
 ~ You may obtain a copy of the License at
 ~
 ~     http://www.apache.org/licenses/LICENSE-2.0
 ~
 ~ Unless required by applicable law or agreed to in writing,
 ~ software distributed under the License is distributed on an
 ~ "AS IS" BASIS, WITHOUT WARRANTIES OR CONDITIONS OF ANY
 ~ KIND, either express or implied. See the License for the
 ~ specific language governing permissions and limitations
 ~ under the License.
-->
<svg xmlns="http://www.w3.org/2000/svg" width="24" height="24" viewBox="0 0 24 24">
    <path fill="#000"
        d="m10.95 12.7l-1.4-1.4q-.3-.3-.7-.3t-.7.3t-.3.713t.3.712l2.1 2.125q.3.3.7.3t.7-.3l4.25-4.25q.3-.3.3-.712t-.3-.713t-.712-.3t-.713.3zM12 21.9q-.175 0-.325-.025t-.3-.075Q8 20.675 6 17.638T4 11.1V6.375q0-.625.363-1.125t.937-.725l6-2.25q.35-.125.7-.125t.7.125l6 2.25q.575.225.938.725T20 6.375V11.1q0 3.5-2 6.538T12.625 21.8q-.15.05-.3.075T12 21.9m0-2q2.6-.825 4.3-3.3t1.7-5.5V6.375l-6-2.25l-6 2.25V11.1q0 3.025 1.7 5.5t4.3 3.3m0-7.9" />
</svg>
