<?xml version="1.0" encoding="UTF-8"?>
<svg id="Layer_1" xmlns="http://www.w3.org/2000/svg" version="1.1" viewBox="0 0 45 45">
  <!-- Generator: Adobe Illustrator 30.0.0, SVG Export Plug-In . SVG Version: 2.1.1 Build 123)  -->
  <path d="M26,33.53s-.05,0-.08,0c-.55-.03-1.01-.41-1.16-.94l-4.14-15.18-2.12,7.08c-.16.54-.66.91-1.23.91h-7.94c-.71,0-1.28-.57-1.28-1.28s.57-1.28,1.28-1.28h6.99l3.13-10.46c.16-.54.66-.91,1.23-.91,0,0,.01,0,.02,0,.57,0,1.07.39,1.22.94l4.32,15.84,1.87-4.62c.2-.48.67-.8,1.19-.8h6.36c.71,0,1.28.57,1.28,1.28s-.57,1.28-1.28,1.28h-5.5l-2.97,7.33c-.2.48-.67.8-1.19.8Z"/>
  <path d="M22.5,45C10.09,45,0,34.91,0,22.5S10.09,0,22.5,0s22.5,10.09,22.5,22.5-10.09,22.5-22.5,22.5ZM22.5,2.56C11.5,2.56,2.56,11.5,2.56,22.5s8.95,19.94,19.94,19.94,19.94-8.95,19.94-19.94S33.5,2.56,22.5,2.56Z"/>
</svg>