<svg xmlns="http://www.w3.org/2000/svg" width="24" height="24" viewBox="0 0 24 24"><g fill="none"><path d="m12.594 23.258l-.012.002l-.071.035l-.02.004l-.014-.004l-.071-.036q-.016-.004-.024.006l-.004.01l-.017.428l.005.02l.01.013l.104.074l.015.004l.012-.004l.104-.074l.012-.016l.004-.017l-.017-.427q-.004-.016-.016-.018m.264-.113l-.014.002l-.184.093l-.01.01l-.003.011l.018.43l.005.012l.008.008l.201.092q.019.005.029-.008l.004-.014l-.034-.614q-.005-.019-.02-.022m-.715.002a.02.02 0 0 0-.027.006l-.006.014l-.034.614q.001.018.017.024l.015-.002l.201-.093l.01-.008l.003-.011l.018-.43l-.003-.012l-.01-.01z"/><path fill="currentColor" d="M20 9.5a1.5 1.5 0 0 1 1.5 1.5a8.5 8.5 0 0 1-8.5 8.5h-2.382a1.5 1.5 0 0 1-2.179 2.06l-2.494-2.494a1.5 1.5 0 0 1-.445-1.052v-.028c.003-.371.142-.71.368-.97l.071-.077l2.5-2.5a1.5 1.5 0 0 1 2.18 2.061H13a5.5 5.5 0 0 0 5.5-5.5A1.5 1.5 0 0 1 20 9.5m-4.44-7.06l2.5 2.5a1.5 1.5 0 0 1 0 2.12l-2.5 2.5a1.5 1.5 0 0 1-2.178-2.06H11A5.5 5.5 0 0 0 5.5 13a1.5 1.5 0 1 1-3 0A8.5 8.5 0 0 1 11 4.5h2.382a1.5 1.5 0 0 1 2.179-2.06Z"/></g></svg>