<svg id="Layer_1" xmlns="http://www.w3.org/2000/svg" viewBox="0 0 102 102">
<defs>
</defs>
<g transform="translate(0, 11.915)">
<path class="cls-1" d="M98.21,18.87c-.33-7.98-6.9-14.34-14.96-14.34h-39.8c-7.98.34-14.34,6.92-14.34,14.98v17.28s-9.51,0-9.51,0h-.36c-2.24-.18-3.95-1.94-3.95-4.03v-12.87c2.73-1.29,4.61-4.07,4.61-7.29,0-4.45-3.61-8.06-8.06-8.06S3.76,8.14,3.76,12.59c0,3.22,1.88,5.99,4.61,7.29v12.94s.01.49.01.49c.26,5.84,5.21,10.45,11.21,10.45h9.51s0,14.91,0,14.91v.63c.34,7.98,6.92,14.34,14.98,14.34h39.8c7.98-.34,14.34-6.92,14.34-14.98V18.87ZM91.31,58.67v.49c-.27,4.22-3.78,7.57-8.06,7.57h-39.66c-4.22-.27-7.57-3.78-7.57-8.06V19.01c.27-4.22,3.78-7.57,8.06-7.57h39.17c4.45,0,8.06,3.61,8.06,8.06v39.17Z"/><path class="cls-1" d="M49.99,58.34V19.92h12.58c3.99,0,7.45.81,10.39,2.42,2.94,1.62,5.22,3.86,6.83,6.73,1.62,2.87,2.42,6.21,2.42,10.03s-.81,7.12-2.42,10.03c-1.62,2.91-3.89,5.17-6.83,6.78-2.94,1.62-6.4,2.42-10.39,2.42h-12.58ZM56.07,52.92h6.6c2.72,0,5.07-.57,7.06-1.7,1.99-1.13,3.54-2.73,4.64-4.8,1.1-2.06,1.65-4.5,1.65-7.32s-.55-5.25-1.65-7.3c-1.1-2.04-2.65-3.64-4.64-4.77-1.99-1.13-4.35-1.7-7.06-1.7h-6.6v27.59Z"/>
</g>
</svg>