<svg width="24" height="24" viewBox="0 0 24 24" fill="none" xmlns="http://www.w3.org/2000/svg"><path d="M12 2.5c1.982 0 3.505 1.434 4.623 3.099 1.146 1.706 2.06 3.932 2.769 6.09.712 2.17 1.235 4.331 1.58 5.946a64 64 0 0 1 .508 2.656l.005.04.002.01v.003h.001v.002a1 1 0 0 1-1.955.409l-.021-.1v-.003l-.001-.008-.006-.033-.023-.136c-.02-.121-.05-.3-.091-.528a62 62 0 0 0-.375-1.894c-.336-1.573-.842-3.662-1.525-5.741-.686-2.093-1.533-4.117-2.528-5.598C13.94 5.19 12.94 4.5 12 4.5s-1.94.691-2.963 2.214c-.995 1.481-1.842 3.505-2.528 5.598-.683 2.08-1.189 4.168-1.525 5.74a62 62 0 0 0-.466 2.423l-.023.136-.006.034v.009a1 1 0 0 1-1.977-.308v-.005l.003-.01.006-.04a27 27 0 0 1 .12-.7c.086-.473.215-1.148.387-1.956.345-1.615.868-3.776 1.58-5.947.708-2.157 1.623-4.383 2.769-6.09C8.496 3.935 10.017 2.5 12 2.5" fill="currentColor"/><path d="M4.031 2.5a1 1 0 0 1 0 2H3.5a1 1 0 0 1 0-2zm4.25 0a1 1 0 0 1 0 2H7.22a1 1 0 0 1 0-2zm4.25 0a1 1 0 1 1 0 2H11.47a1 1 0 1 1 0-2zm4.25 0a1 1 0 1 1 0 2H15.72a1 1 0 1 1 0-2zm3.719 0a1 1 0 1 1 0 2h-.531a1 1 0 1 1 0-2z" fill="currentColor"/></svg>