<svg width="24" height="24" viewBox="0 0 24 24" fill="none" xmlns="http://www.w3.org/2000/svg"><path d="M2.012 11a1 1 0 0 1 0 2H2a1 1 0 0 1 0-2zm3.997 0a1 1 0 0 1 0 2H6a1 1 0 0 1 0-2zm3.998 0a1 1 0 0 1 0 2h-.011a1 1 0 0 1 0-2zm3.998 0a1 1 0 0 1 0 2h-.012a1 1 0 0 1 0-2zm3.998 0a1 1 0 0 1 0 2h-.012a1 1 0 0 1 0-2zM22 11a1 1 0 0 1 0 2h-.012a1 1 0 0 1 0-2z" fill="currentColor"/><path d="M5.991 2c1.17 0 2.166.332 2.998.953.822.611 1.429 1.46 1.895 2.398.912 1.831 1.392 4.228 1.851 6.394.48 2.262.939 4.304 1.747 5.793.392.723.844 1.27 1.383 1.641.534.366 1.212.599 2.11.599 1.374 0 2.32-.91 3.175-2.439.14-.25.365-.428.623-.495a.92.92 0 0 1 .755.139c.226.156.386.405.446.692s.015.589-.125.84C21.854 20.29 20.379 22 17.976 22c-1.228 0-2.277-.323-3.16-.929-.877-.601-1.536-1.443-2.048-2.387-1-1.844-1.518-4.247-1.98-6.43-.482-2.278-.906-4.325-1.653-5.827-.362-.728-.776-1.268-1.26-1.63-.473-.351-1.073-.575-1.884-.575-1.36 0-2.311.904-3.133 2.424a1.02 1.02 0 0 1-.615.507.92.92 0 0 1-.757-.126 1.1 1.1 0 0 1-.456-.683 1.22 1.22 0 0 1 .113-.842C2.117 3.698 3.603 2 5.99 2" fill="currentColor"/></svg>