<svg width="24" height="24" viewBox="0 0 24 24" fill="none" xmlns="http://www.w3.org/2000/svg"><path d="M12 21.5c1.982 0 3.505-1.433 4.623-3.098 1.146-1.706 2.06-3.933 2.769-6.09.712-2.17 1.235-4.332 1.58-5.946a64 64 0 0 0 .508-2.657l.005-.04.002-.01v-.002l.001-.001v-.001a1 1 0 0 0-1.955-.41l-.021.101v.002l-.001.008-.006.033-.023.137a62 62 0 0 1-.467 2.422c-.335 1.573-.841 3.661-1.524 5.74-.686 2.093-1.533 4.117-2.528 5.599C13.94 18.809 12.94 19.5 12 19.5s-1.94-.691-2.963-2.213c-.995-1.482-1.842-3.506-2.528-5.598-.683-2.08-1.189-4.168-1.525-5.741a62 62 0 0 1-.466-2.422l-.023-.137-.006-.033v-.01a1 1 0 0 0-1.977.309v.005l.003.01.006.04a27 27 0 0 0 .12.699c.086.473.215 1.148.387 1.957.345 1.614.868 3.776 1.58 5.946.708 2.158 1.623 4.384 2.769 6.09C8.496 20.067 10.017 21.5 12 21.5" fill="currentColor"/><path d="M4.031 21.5a1 1 0 1 0 0-2H3.5a1 1 0 1 0 0 2zm4.25 0a1 1 0 1 0 0-2H7.22a1 1 0 1 0 0 2zm4.25 0a1 1 0 1 0 0-2H11.47a1 1 0 1 0 0 2zm4.25 0a1 1 0 1 0 0-2H15.72a1 1 0 1 0 0 2zm3.719 0a1 1 0 1 0 0-2h-.531a1 1 0 1 0 0 2z" fill="currentColor"/></svg>