<svg width="24" height="24" viewBox="0 0 24 24" fill="none" xmlns="http://www.w3.org/2000/svg">
<path d="M4.94824 6C7.18745 6.00008 9.28525 7.09251 10.5693 8.92676C11.0175 9.56709 11.6134 10.0902 12.3066 10.4512C12.9999 10.8121 13.7702 11.0001 14.5518 11H21C21.5523 11 22 11.4477 22 12C22 12.5523 21.5523 13 21 13H14.5518C13.4486 13.0001 12.3613 12.734 11.3828 12.2246C10.4044 11.7151 9.56318 10.977 8.93066 10.0732C8.02083 8.77376 6.53476 8.00008 4.94824 8H3C2.44772 8 2 7.55228 2 7C2 6.44772 2.44772 6 3 6H4.94824Z" fill="currentColor"/>
<path d="M20 11C20.5523 11 21 11.4477 21 12C21 12.5523 20.5523 13 20 13H14.5459C13.765 12.9997 12.9953 13.188 12.3027 13.5488C11.6102 13.9097 11.0146 14.4321 10.5674 15.0723C9.93578 15.9765 9.09532 16.715 8.11719 17.2246C7.13925 17.7341 6.05291 18.0003 4.9502 18H3C2.44772 18 2 17.5523 2 17C2 16.4477 2.44772 16 3 16H4.9502C5.73112 16.0003 6.50081 15.812 7.19336 15.4512C7.88571 15.0904 8.48059 14.5677 8.92773 13.9277C9.55934 13.0235 10.4008 12.285 11.3789 11.7754C12.3569 11.2659 13.4432 10.9997 14.5459 11H20Z" fill="currentColor"/>
<path d="M17.293 8.29297C17.6835 7.90245 18.3165 7.90245 18.707 8.29297L21.707 11.293C22.0976 11.6835 22.0976 12.3165 21.707 12.707L18.707 15.707C18.3165 16.0976 17.6835 16.0976 17.293 15.707C16.9024 15.3165 16.9024 14.6835 17.293 14.293L19.5859 12L17.293 9.70703C16.9024 9.31651 16.9024 8.68349 17.293 8.29297Z" fill="currentColor"/>
</svg>
