<svg width="28" height="24" viewBox="0 0 28 24" fill="none" xmlns="http://www.w3.org/2000/svg">
<path d="M0.5 0.5H7.5V3.5H0.5V0.5Z" fill="black"/>
<path d="M0.5 22V2H3.5V22H0.5Z" fill="black"/>
<path d="M0.5 20.5H7.5V23.5H0.5V20.5Z" fill="black"/>
<path d="M20.5 0.5H27.5V3.5H20.5V0.5Z" fill="black"/>
<path d="M24.5 22V2H27.5V22H24.5Z" fill="black"/>
<path d="M20.5 20.5H27.5V23.5H20.5V20.5Z" fill="black"/>
<path d="M10 10C11.1046 10 12 9.10457 12 8C12 6.89543 11.1046 6 10 6C8.89543 6 8 6.89543 8 8C8 9.10457 8.89543 10 10 10Z" fill="black"/>
<path d="M14 10C15.1046 10 16 9.10457 16 8C16 6.89543 15.1046 6 14 6C12.8954 6 12 6.89543 12 8C12 9.10457 12.8954 10 14 10Z" fill="black"/>
<path d="M18 10C19.1046 10 20 9.10457 20 8C20 6.89543 19.1046 6 18 6C16.8954 6 16 6.89543 16 8C16 9.10457 16.8954 10 18 10Z" fill="black"/>
<path d="M9 16C9 15.4477 9.44772 15 10 15H18C18.5523 15 19 15.4477 19 16C19 16.5523 18.5523 17 18 17H10C9.44772 17 9 16.5523 9 16Z" fill="black"/>
<path d="M15.2929 13.2929C15.6834 12.9024 16.3166 12.9024 16.7071 13.2929L19.4142 16L16.7071 18.7071C16.3166 19.0976 15.6834 19.0976 15.2929 18.7071C14.9024 18.3166 14.9024 17.6834 15.2929 17.2929L16.5858 16L15.2929 14.7071C14.9024 14.3166 14.9024 13.6834 15.2929 13.2929Z" fill="black"/>
</svg>
