<svg width="24" height="24" viewBox="0 0 24 24" fill="none" xmlns="http://www.w3.org/2000/svg">
<path d="M14 8.5V3H3V14H8.5C9.05228 14 9.5 14.4477 9.5 15C9.5 15.5523 9.05228 16 8.5 16H2C1.44772 16 1 15.5523 1 15V2C1 1.44772 1.44772 1 2 1H15C15.5523 1 16 1.44772 16 2V8.5C16 9.05228 15.5523 9.5 15 9.5C14.4477 9.5 14 9.05228 14 8.5Z" fill="currentColor"/>
<path d="M21.5 7.5C22.0523 7.5 22.5 7.94772 22.5 8.5V21.5C22.5 22.0523 22.0523 22.5 21.5 22.5H8.5C7.94772 22.5 7.5 22.0523 7.5 21.5V8.5C7.5 7.94772 7.94772 7.5 8.5 7.5H21.5ZM9.5 14H14.0859L13.293 13.207C12.9024 12.8165 12.9024 12.1835 13.293 11.793C13.6835 11.4024 14.3165 11.4024 14.707 11.793L17.207 14.293C17.5976 14.6835 17.5976 15.3165 17.207 15.707L14.707 18.207C14.3165 18.5976 13.6835 18.5976 13.293 18.207C12.9024 17.8165 12.9024 17.1835 13.293 16.793L14.0859 16H9.5V20.5H20.5V9.5H9.5V14Z" fill="currentColor"/>
</svg>
