<svg width="24" height="24" viewBox="0 0 24 24" fill="none" xmlns="http://www.w3.org/2000/svg"><path d="M4 16v-5.586l-.293.293a1 1 0 1 1-1.414-1.414l2-2A1 1 0 0 1 6 8v8a1 1 0 1 1-2 0m4-1v-2a2 2 0 0 1 2-2h2V9H9a1 1 0 0 1 0-2h3l.197.01A2 2 0 0 1 14 9v2a2 2 0 0 1-2 2h-2v2h3a1 1 0 1 1 0 2h-3a2 2 0 0 1-2-2m12-.5v-1a.5.5 0 0 0-.402-.49L19.5 13H18a1 1 0 1 1 0-2h1.5l.098-.01A.5.5 0 0 0 20 10.5v-1a.5.5 0 0 0-.402-.49L19.5 9H17a1 1 0 1 1 0-2h2.5A2.5 2.5 0 0 1 22 9.5v1c0 .545-.181 1.07-.505 1.5.324.43.505.955.505 1.5v1a2.5 2.5 0 0 1-2.5 2.5H17a1 1 0 1 1 0-2h2.5l.098-.01A.5.5 0 0 0 20 14.5" fill="currentColor"/></svg>