<svg width="24" height="24" viewBox="0 0 24 24" fill="none" xmlns="http://www.w3.org/2000/svg"><path d="M2 12A10 10 0 0 1 12 2h.004l.519.015a10.75 10.75 0 0 1 6.53 2.655l.394.363 2.26 2.26a1 1 0 1 1-1.414 1.414l-2.248-2.248-.31-.286A8.75 8.75 0 0 0 11.996 4 8 8 0 0 0 4 12a1 1 0 1 1-2 0" fill="currentColor"/><path d="M20 12a1 1 0 1 1 2 0 10 10 0 0 1-10 10h-.004a10.75 10.75 0 0 1-7.05-2.67l-.393-.363-2.26-2.26a1 1 0 1 1 1.414-1.414l2.248 2.248.31.286A8.75 8.75 0 0 0 12.003 20 8 8 0 0 0 20 12m0-9a1 1 0 1 1 2 0v5a1 1 0 0 1-1 1h-5a1 1 0 1 1 0-2h4z" fill="currentColor"/><path d="M2 21v-5a1 1 0 0 1 1-1h5a1 1 0 1 1 0 2H4v4a1 1 0 1 1-2 0" fill="currentColor"/></svg>