<svg width="24" height="24" viewBox="0 0 24 24" fill="none" xmlns="http://www.w3.org/2000/svg"><path d="M6.625 8.816h-4.3q-.457 0-.765-.306a1.02 1.02 0 0 1-.31-.755q-.001-.45.31-.756.31-.306.765-.306h4.3V4.412l-.94.928q-.323.318-.766.306a1.1 1.1 0 0 1-.766-.332q-.296-.319-.31-.743a.96.96 0 0 1 .31-.743l2.795-2.76Q7.268.75 7.7.75q.43 0 .753.318l2.795 2.76q.322.318.308.743-.014.424-.308.743-.322.318-.766.332-.442.014-.766-.306l-.941-.928v10.772h12.9q.457 0 .767.306.31.305.308.755 0 .45-.31.757-.307.306-.765.305h-4.3v2.281l.94-.928a1 1 0 0 1 .767-.306 1.095 1.095 0 0 1 1.075 1.075.96.96 0 0 1-.31.743l-2.795 2.76a1.04 1.04 0 0 1-.752.318q-.43 0-.753-.318l-2.795-2.76a.96.96 0 0 1-.308-.743q.014-.424.308-.743.323-.318.767-.33.444-.015.765.304l.941.928v-2.281h-6.45a2.08 2.08 0 0 1-1.518-.623 2.04 2.04 0 0 1-.632-1.5zm8.6 4.245V8.816h-4.3V6.693h4.3q.887 0 1.519.624t.631 1.499v4.245z" fill="currentColor"/></svg>